<?xml version="1.0" encoding="utf-8"?>
<!-- Generator: Adobe Illustrator 24.0.1, SVG Export Plug-In . SVG Version: 6.00 Build 0)  -->
<svg version="1.1" xmlns="http://www.w3.org/2000/svg" xmlns:xlink="http://www.w3.org/1999/xlink" x="0px" y="0px"
	 viewBox="0 0 336 488" style="enable-background:new 0 0 336 488;" xml:space="preserve">
<style type="text/css">
	.st0{display:none;}
	.st1{fill:#7688F0;stroke:#4861EB;stroke-width:10;stroke-miterlimit:10;}
	.st2{fill:#FCB49C;stroke:#ED8385;stroke-width:10;stroke-miterlimit:10;}
	.st3{fill:#FCB49C;stroke:#ED8385;stroke-width:9.6347;stroke-miterlimit:10;}
	.st4{fill:#E58F8B;}
	.st5{fill:none;stroke:#FFFFFF;stroke-width:10;stroke-linecap:round;stroke-miterlimit:10;}
	.st6{fill:#F2F2F2;stroke:#CCCCCC;stroke-width:10;stroke-linecap:round;stroke-linejoin:round;stroke-miterlimit:10;}
	.st7{fill:#FF4A51;}
	.st8{fill:#F2F2F2;stroke:#E28174;stroke-width:10;stroke-linecap:round;stroke-linejoin:round;stroke-miterlimit:10;}
	.st9{fill:none;stroke:#E28174;stroke-width:10;stroke-linecap:round;stroke-linejoin:round;stroke-miterlimit:10;}
	.st10{fill:none;stroke:#ED8385;stroke-width:10;stroke-linecap:round;stroke-linejoin:round;stroke-miterlimit:10;}
	.st11{fill:none;stroke:#ED8385;stroke-width:10;stroke-linecap:round;stroke-miterlimit:10;}
	.st12{fill:#1A1A1A;}
	.st13{fill:none;stroke:#1A1A1A;stroke-width:10;stroke-linecap:round;stroke-miterlimit:10;}
</style>
<g id="Layer_1" class="st0">
	
		<image style="display:inline;overflow:visible;" width="220" height="317" xlink:href="../../Butcher,_late_19th_century.jpg"  transform="matrix(4.7423 0 0 4.7423 -334 -200)">
	</image>
</g>
<g id="Layer_2">
	<g>
		<path class="st1" d="M-25,488c2.3-199.9,20.2-210.5,193-210.5S358.7,288.1,361,488"/>
	</g>
	<path class="st2" d="M210.2,230.4v54.1c0,38.1-18.9,47.7-42.2,47.7s-42.2-9.6-42.2-47.7v-56.7"/>
	<path class="st3" d="M107,142.6c5.3,20.7-16.3,41.1-36.5,45.5s-31.2-8.8-36.5-29.5s-1.2-42.4,26.9-45.5
		C81.5,110.9,101.7,121.9,107,142.6z"/>
	<path class="st4" d="M175,210.9"/>
	<path class="st3" d="M229,142.6c-5.3,20.7,16.3,41.1,36.5,45.5s31.2-8.8,36.5-29.5s1.2-42.4-26.9-45.5
		C254.5,110.9,234.3,121.9,229,142.6z"/>
	<path class="st2" d="M168,259.2c92.6,0,95.3-51.7,92.6-115.3C256.2,41.7,219.1,25.5,168,25.5S79.8,41.7,75.4,143.8
		C72.7,207.5,75.4,259.2,168,259.2z"/>
	<path class="st4" d="M170.3,210.9"/>
	<path class="st5" d="M113.8,69.2c9.3-17.3,23.4-23.2,40.5-24.7"/>
	<path class="st5" d="M105.5,94c0.7-3.4,1.5-6.7,2.3-9.7"/>
	<path class="st6" d="M341,494c-23.9-3-63.2,10.1-63.6-215.9c0-0.8-0.5-1.6-1.3-1.9c-7.9-2.9-13.1-4.2-30.8-4.2
		c-1.2,0-2.4,0.6-2.5,1.8c-11,118.8,17.7,138.7-74.9,137.7c-92.6-0.9-62.9-18.9-73.9-137.7c-1-0.7-1.4-1-2.5-1.8
		c-12.4,0-22.9,1.3-30.8,4.2c-0.8,0.3-1.3,1-1.3,1.9C58.3,504.1,19.6,491-4,494"/>
	<path class="st7" d="M107.5,437.7c-2.1,7.5-2.9,13.1-3.1,17.1c-0.2,3.9-3.8,6.6-7.6,5.7l-9.4-2.3c-4.7-1.1-8.2-5-8.9-9.8
		c-1-6.8-1.3-15.9,3.2-19C89.3,424.1,110.5,426.8,107.5,437.7z"/>
	<circle class="st7" cx="116.6" cy="466.9" r="6.3"/>
	<path class="st8" d="M284.3,139.5"/>
	<g>
		<line class="st9" x1="281.7" y1="135.1" x2="261.2" y2="150.9"/>
		<line class="st10" x1="273.7" y1="160.3" x2="261.2" y2="150.6"/>
	</g>
	<g>
		<line class="st10" x1="281.7" y1="135.1" x2="261.2" y2="150.9"/>
	</g>
	<g>
		<line class="st10" x1="61.5" y1="160.9" x2="74.8" y2="150.6"/>
		<line class="st10" x1="54.3" y1="135.1" x2="74.8" y2="150.9"/>
	</g>
	<line class="st11" x1="200.3" y1="162.5" x2="222.7" y2="162.5"/>
	<line class="st11" x1="118" y1="162.5" x2="140.4" y2="162.5"/>
	<circle class="st12" cx="129.2" cy="137.5" r="9.3"/>
	<circle class="st12" cx="211.5" cy="137.5" r="9.3"/>
	<path class="st11" d="M181.6,210.9c0,5.8-5.9,10.6-13.3,10.6s-13.3-4.7-13.3-10.6"/>
	<path class="st13" d="M227.1,107.7"/>
	<path class="st12" d="M171.9,191.7c2,9.2-5,17.9-14.9,22.3c-34.1,15-48-4.2-51.9-20.4c-0.8-3.5,4-5.2,5.6-2
		c5,10.1,15.9,16.7,38.9-10.9C157.2,171.8,169.9,182.5,171.9,191.7z"/>
	<path class="st12" d="M168.7,191.7c-2,9.2,5,17.9,14.9,22.3c34.1,15,48-4.2,51.9-20.4c0.8-3.5-4-5.2-5.6-2
		c-5,10.1-15.9,16.7-38.9-10.9C183.4,171.8,170.7,182.5,168.7,191.7z"/>
	<g>
		<line class="st13" x1="247" y1="92.9" x2="273.7" y2="89.3"/>
		<line class="st13" x1="250.3" y1="106.9" x2="268.3" y2="104.5"/>
		<line class="st13" x1="88.2" y1="92.9" x2="61.5" y2="89.3"/>
		<line class="st13" x1="84.8" y1="106.9" x2="66.9" y2="104.5"/>
	</g>
	<line class="st13" x1="200.3" y1="124.6" x2="222.7" y2="124.6"/>
	<line class="st13" x1="118" y1="124.6" x2="140.4" y2="124.6"/>
</g>
</svg>
