<?xml version="1.0" standalone="no"?>
<!DOCTYPE svg PUBLIC "-//W3C//DTD SVG 20010904//EN"
 "http://www.w3.org/TR/2001/REC-SVG-20010904/DTD/svg10.dtd">
<svg version="1.0" xmlns="http://www.w3.org/2000/svg"
 width="300.000000pt" height="300.000000pt" viewBox="0 0 300.000000 300.000000"
 preserveAspectRatio="xMidYMid meet">

<g transform="translate(0.000000,300.000000) scale(0.100000,-0.100000)"
fill="#000000" stroke="none">
<path d="M1510 2845 c0 -6 -2 -230 -3 -499 -2 -423 -4 -490 -17 -497 -8 -5
-55 -27 -105 -50 -49 -22 -103 -47 -120 -55 -16 -7 -154 -70 -305 -138 -151
-69 -276 -129 -278 -135 -3 -8 161 -108 423 -261 44 -26 154 -90 244 -144
l163 -96 67 38 c65 38 732 434 760 451 11 7 5 23 -30 82 -25 41 -208 346 -408
679 -348 578 -391 647 -391 625z"/>
<path d="M2300 1318 c-19 -12 -199 -118 -400 -236 -201 -118 -371 -220 -378
-226 -9 -9 -12 -87 -10 -349 l3 -336 165 231 c91 128 210 295 264 373 55 77
167 234 249 349 81 114 147 210 145 212 -2 2 -19 -6 -38 -18z"/>
</g>
</svg>
