<svg xmlns="http://www.w3.org/2000/svg" xmlns:xlink="http://www.w3.org/1999/xlink" viewBox="0 0 2413.79 166.37"><defs><style>.cls-HamFarmLayer004svg-1{fill:#ffd731;}.cls-HamFarmLayer004svg-2{fill:url(#linear-gradient);}.cls-HamFarmLayer004svg-3{fill:url(#linear-gradient-2);}.cls-HamFarmLayer004svg-4{fill:url(#linear-gradient-3);}.cls-HamFarmLayer004svg-5{fill:url(#linear-gradient-4);}.cls-HamFarmLayer004svg-6{fill:url(#linear-gradient-5);}.cls-HamFarmLayer004svg-7{fill:url(#linear-gradient-6);}.cls-HamFarmLayer004svg-8{fill:url(#linear-gradient-7);}.cls-HamFarmLayer004svg-9{fill:url(#linear-gradient-8);}.cls-HamFarmLayer004svg-10{fill:url(#linear-gradient-9);}.cls-HamFarmLayer004svg-11{fill:url(#linear-gradient-10);}.cls-HamFarmLayer004svg-12{fill:url(#linear-gradient-11);}</style><linearGradient id="linear-gradient" x1="1230.29" y1="97.89" x2="1230.29" y2="35.76" gradientUnits="userSpaceOnUse"><stop offset="0" stop-color="#f8f4e3" stop-opacity="0"/><stop offset="0.02" stop-color="#f8f4e3" stop-opacity="0.05"/><stop offset="0.09" stop-color="#f8f4e3" stop-opacity="0.24"/><stop offset="0.16" stop-color="#f8f4e3" stop-opacity="0.42"/><stop offset="0.24" stop-color="#f8f4e3" stop-opacity="0.58"/><stop offset="0.33" stop-color="#f8f4e3" stop-opacity="0.71"/><stop offset="0.42" stop-color="#f8f4e3" stop-opacity="0.82"/><stop offset="0.52" stop-color="#f8f4e3" stop-opacity="0.9"/><stop offset="0.63" stop-color="#f8f4e3" stop-opacity="0.96"/><stop offset="0.77" stop-color="#f8f4e3" stop-opacity="0.99"/><stop offset="1" stop-color="#f8f4e3"/></linearGradient><linearGradient id="linear-gradient-2" x1="1118.3" y1="77.66" x2="1118.3" y2="15.53" xlink:href="#linear-gradient"/><linearGradient id="linear-gradient-3" x1="631.94" y1="166.37" x2="631.94" y2="104.24" xlink:href="#linear-gradient"/><linearGradient id="linear-gradient-4" x1="1527.66" y1="31.06" x2="1527.66" y2="0" xlink:href="#linear-gradient"/><linearGradient id="linear-gradient-5" x1="741.32" y1="119.77" x2="741.32" y2="88.71" xlink:href="#linear-gradient"/><linearGradient id="linear-gradient-6" x1="580.48" y1="62.13" x2="580.48" y2="31.06" xlink:href="#linear-gradient"/><linearGradient id="linear-gradient-7" x1="301.4" y1="150.63" x2="301.4" y2="88.5" xlink:href="#linear-gradient"/><linearGradient id="linear-gradient-8" x1="124.98" y1="119.56" x2="124.98" y2="57.43" xlink:href="#linear-gradient"/><linearGradient id="linear-gradient-9" x1="2288.81" y1="127.98" x2="2288.81" y2="65.85" xlink:href="#linear-gradient"/><linearGradient id="linear-gradient-10" x1="2058.15" y1="62.13" x2="2058.15" y2="31.06" xlink:href="#linear-gradient"/><linearGradient id="linear-gradient-11" x1="1768.38" y1="143.57" x2="1768.38" y2="81.44" xlink:href="#linear-gradient"/></defs><title>HAM_Farm_Layer_004</title><g id="Layer_2" data-name="Layer 2"><g id="Layer_4" data-name="Layer 4"><circle class="cls-HamFarmLayer004svg-1" cx="1838.81" cy="62.13" r="58.39"/></g><g id="Layer_6" data-name="Layer 6"><path class="cls-HamFarmLayer004svg-2" d="M1355,97.89v-.08h-.16c4.68-25.16-29.7-18.14-33.23-14.81,0-.11,0-.24,0-.34C1343.37,44.89,1254,9.55,1232.72,63c-5.1-8.22-13.31-13.56-22.58-13.56-10.54,0-19.71,6.9-24.49,17.1a25.63,25.63,0,0,0-45.55,16.13c0,.12,0,.23,0,.34-3.53-3.33-43.07-6.82-33.23,14.81h-.17v.08Z"/><path class="cls-HamFarmLayer004svg-3" d="M1243,77.66v-.07h-.17c4.69-25.17-29.7-18.14-33.23-14.81,0-.12,0-.24,0-.34,21.75-37.78-67.59-73.11-88.89-19.67-5.1-8.23-13.32-13.57-22.58-13.57-10.54,0-19.71,6.91-24.5,17.11a25.63,25.63,0,0,0-45.55,16.13c0,.11,0,.22,0,.34-3.53-3.33-43.06-6.82-33.23,14.81h-.16v.07Z"/><path class="cls-HamFarmLayer004svg-4" d="M756.65,166.37v-.08h-.17c4.69-25.16-29.7-18.14-33.22-14.81,0-.11,0-.24,0-.34C745,113.37,655.67,78,634.37,131.47c-5.1-8.22-13.31-13.56-22.58-13.56-10.54,0-19.71,6.9-24.5,17.1a25.63,25.63,0,0,0-45.55,16.13c0,.12,0,.23,0,.34-3.53-3.33-43.06-6.82-33.22,14.81h-.17v.08Z"/><path class="cls-HamFarmLayer004svg-5" d="M1590,31.06v0h-.08c2.34-12.58-14.85-9.07-16.61-7.41,0-.05,0-.12,0-.17,10.88-18.89-33.8-36.55-44.45-9.83-2.55-4.11-6.65-6.78-11.29-6.78-5.27,0-9.85,3.45-12.25,8.55a12.81,12.81,0,0,0-22.77,8.06v.17C1480.8,22,1461,20.21,1466,31h-.08v0Z"/><path class="cls-HamFarmLayer004svg-6" d="M803.67,119.77v0h-.08c2.34-12.58-14.85-9.07-16.61-7.4,0-.06,0-.12,0-.17,10.88-18.89-33.79-36.56-44.45-9.84-2.55-4.11-6.65-6.78-11.29-6.78-5.26,0-9.85,3.45-12.24,8.55a12.82,12.82,0,0,0-22.78,8.07c0,.06,0,.11,0,.17-1.77-1.67-21.53-3.41-16.62,7.4h-.08v0Z"/><path class="cls-HamFarmLayer004svg-7" d="M642.84,62.13v0h-.09c2.35-12.58-14.84-9.07-16.61-7.4,0-.06,0-.12,0-.17C637,35.63,592.35,18,581.7,44.68c-2.55-4.11-6.66-6.78-11.29-6.78-5.27,0-9.86,3.45-12.25,8.55a12.81,12.81,0,0,0-22.77,8.07v.17c-1.76-1.67-21.53-3.41-16.61,7.4h-.09v0Z"/><path class="cls-HamFarmLayer004svg-8" d="M426.11,150.63v-.08H426c4.68-25.16-29.7-18.14-33.23-14.81,0-.11-.05-.24,0-.34,21.75-37.77-67.59-73.11-88.9-19.67-5.1-8.22-13.31-13.56-22.58-13.56-10.54,0-19.71,6.9-24.49,17.1a25.63,25.63,0,0,0-45.55,16.13c0,.12,0,.23,0,.34-3.53-3.33-43.07-6.82-33.23,14.81h-.17v.08Z"/><path class="cls-HamFarmLayer004svg-9" d="M249.69,119.56v-.07h-.16c4.68-25.17-29.7-18.14-33.23-14.81,0-.11-.05-.24,0-.34,21.75-37.78-67.6-73.11-88.9-19.67-5.1-8.23-13.31-13.56-22.58-13.56-10.54,0-19.71,6.9-24.49,17.1a25.63,25.63,0,0,0-45.55,16.13v.34c-3.52-3.33-43.06-6.82-33.22,14.81H1.4v.07Z"/><path class="cls-HamFarmLayer004svg-10" d="M2413.52,128v-.07h-.16c4.68-25.17-29.7-18.14-33.23-14.81,0-.11-.05-.24,0-.34,21.75-37.78-67.59-73.11-88.9-19.67-5.1-8.22-13.31-13.56-22.58-13.56-10.54,0-19.71,6.9-24.49,17.1a25.63,25.63,0,0,0-45.55,16.13c0,.11,0,.23,0,.34-3.53-3.33-43.07-6.82-33.23,14.81h-.17V128Z"/><path class="cls-HamFarmLayer004svg-11" d="M2120.5,62.13v0h-.08c2.34-12.58-14.85-9.07-16.61-7.4,0-.06,0-.12,0-.17,10.88-18.89-33.79-36.56-44.45-9.84-2.55-4.11-6.65-6.78-11.29-6.78-5.26,0-9.85,3.45-12.24,8.55a12.82,12.82,0,0,0-22.78,8.07,1,1,0,0,0,0,.17c-1.77-1.67-21.54-3.41-16.62,7.4h-.08v0Z"/></g><g id="Layer_13" data-name="Layer 13"><path class="cls-HamFarmLayer004svg-12" d="M1893.09,143.57v-.07h-.16c4.68-25.17-29.7-18.14-33.23-14.81,0-.12,0-.24,0-.34,21.75-37.78-67.59-73.11-88.9-19.67-5.1-8.23-13.31-13.57-22.58-13.57-10.54,0-19.71,6.91-24.49,17.11a25.63,25.63,0,0,0-45.55,16.13c0,.11,0,.22,0,.34-3.53-3.33-43.07-6.82-33.23,14.81h-.17v.07Z"/></g></g></svg>