<?xml version="1.0" encoding="utf-8"?>
<!-- Generator: Adobe Illustrator 24.0.1, SVG Export Plug-In . SVG Version: 6.00 Build 0)  -->
<svg version="1.1" id="Layer_1" xmlns="http://www.w3.org/2000/svg" xmlns:xlink="http://www.w3.org/1999/xlink" x="0px" y="0px"
	 viewBox="0 0 285.1 238.6" style="enable-background:new 0 0 285.1 238.6;" xml:space="preserve">
<style type="text/css">
	.st0-HamFarmLayer001svg{fill:#492E25;}
	.st1-HamFarmLayer001svg{fill:#925C4A;}
	.st2-HamFarmLayer001svg{fill:none;stroke:#F2F2F2;stroke-width:12;stroke-linecap:round;stroke-miterlimit:10;}
	.st3-HamFarmLayer001svg{fill:none;stroke:#F2F2F2;stroke-width:12;stroke-linecap:round;stroke-linejoin:round;}
	.st4-HamFarmLayer001svg{fill:#999999;}
	.st5-HamFarmLayer001svg{fill:#3D3E43;}
</style>
<title>HAM_Farm_Layer_001</title>
<path class="st0-HamFarmLayer001svg" d="M145,238.6c5.3-90.4,14.8-201.9,17.1-228.6c0.3-3.3-6.9-9-9.3-9.2L143.4,3c-2.2-0.1-4.1,2.2-4.4,5.3
	c-6.8,81.5-12.6,159.4-16.7,230.3L145,238.6z"/>
<path class="st1-HamFarmLayer001svg" d="M139.3,238.6c5.3-90.9,15-204.5,17.3-231.6c0.3-3.3-1.4-6.1-3.8-6.2l-15-0.8c-2.2-0.1-4.1,2.2-4.4,5.3
	c-6.9,82.6-12.8,161.6-16.8,233.3H139.3z"/>
<path class="st0-HamFarmLayer001svg" d="M277.2,159.9c-97.4-4.5-189.3-6.1-265.2,0.4c-2.1,0.2-10.5-4.7-10.4-6.7L12.9,21.1c0.1-1.8,1.5-3.2,3.3-3.3
	c70.4-3.3,178.1,3,259.2,3.7c1.9,0,9.8,7.2,9.7,9.1l-4.2,126C280.8,158.5,279.2,160,277.2,159.9
	C277.3,159.9,277.2,159.9,277.2,159.9z"/>
<path class="st1-HamFarmLayer001svg" d="M268.9,153.6c-97.4-4.5-189.3-6.2-265.2,0.4c-1.9,0.2-3.5-1.2-3.7-3.1c0-0.1,0-0.3,0-0.4L4.6,14.8
	c0-1.8,1.5-3.2,3.3-3.3c70.4-3.3,184.4,8.5,265.5,9.3c1.9,0,3.4,1.6,3.4,3.4c0,0,0,0.1,0,0.1l-4.2,126
	C272.4,152.2,270.8,153.7,268.9,153.6C268.9,153.6,268.9,153.6,268.9,153.6z"/>
<polygon class="st0-HamFarmLayer001svg" points="277.3,85.4 243.2,90.8 277.1,90.9 "/>
<polygon class="st0-HamFarmLayer001svg" points="3.6,42.2 29.3,48.3 3.5,47.4 "/>
<polygon class="st0-HamFarmLayer001svg" points="0.9,125.2 14.8,125.9 30.7,127 16.6,127.8 0.7,129.9 "/>
<g>
	<path class="st2-HamFarmLayer001svg" d="M66.8,64.2c-0.2,17.2,0.7,34.5,2.7,51.6"/>
	<path class="st2-HamFarmLayer001svg" d="M99.9,116.4c2.8-20.9,2.3-42.2-1.3-63"/>
	<path class="st2-HamFarmLayer001svg" d="M67.6,91.6c13.8-0.5,27.5-0.9,41.3-1.2"/>
	<path class="st2-HamFarmLayer001svg" d="M138.7,55.2l-19.2,61.1"/>
	<path class="st2-HamFarmLayer001svg" d="M154.3,119.6c-7.3-23.5-12.6-47.6-16.1-72"/>
	<path class="st2-HamFarmLayer001svg" d="M127.9,101.2L145,101"/>
	<polyline class="st3-HamFarmLayer001svg" points="171.2,110.4 178,48.4 191.5,87 209.9,46.3 209.9,116.7 	"/>
</g>
<path class="st4-HamFarmLayer001svg" d="M132.9,17.4l2.3,1.7c1.2,0.9,2.7,1.5,4.2,1.7l2.6,0.3c0.7,0.1,1.1,0.8,1,1.5c0,0,0,0,0,0.1l0,0
	c-0.1,0.6-0.6,1.1-1.3,1L138,23c-1.5-0.3-2.8-0.9-4-1.8l-2.8-2.1"/>
<path class="st5-HamFarmLayer001svg" d="M129.6,23.4c1.3,1,3.7,0.2,5.4-1.9s2-4.6,0.6-5.7l-0.9-0.7l-5.8,7.7L129.6,23.4z"/>
<ellipse transform="matrix(0.6251 -0.7805 0.7805 0.6251 34.6404 110.1558)" class="st4-HamFarmLayer001svg" cx="132" cy="19" rx="4.8" ry="3"/>
<circle class="st5-HamFarmLayer001svg" cx="134.3" cy="138.1" r="4.8"/>
<circle class="st4-HamFarmLayer001svg" cx="133.9" cy="138.1" r="4.8"/>
</svg>
