<svg xmlns="http://www.w3.org/2000/svg" xmlns:xlink="http://www.w3.org/1999/xlink" viewBox="0 0 2434.96 377.9"><defs><style>.cls-HamFarmLayer003svg-1{fill:#925c4a;}.cls-HamFarmLayer003svg-2{fill:url(#linear-gradient);}.cls-HamFarmLayer003svg-3{fill:url(#linear-gradient-2);}.cls-HamFarmLayer003svg-4{fill:url(#linear-gradient-3);}.cls-HamFarmLayer003svg-5{fill:url(#linear-gradient-4);}.cls-HamFarmLayer003svg-6{fill:url(#linear-gradient-5);}.cls-HamFarmLayer003svg-7{fill:url(#linear-gradient-6);}.cls-HamFarmLayer003svg-8{fill:url(#linear-gradient-7);}.cls-HamFarmLayer003svg-9{fill:url(#linear-gradient-8);}.cls-HamFarmLayer003svg-10{fill:url(#linear-gradient-9);}.cls-HamFarmLayer003svg-11{fill:url(#linear-gradient-10);}.cls-HamFarmLayer003svg-12{fill:url(#linear-gradient-11);}.cls-HamFarmLayer003svg-13{fill:url(#linear-gradient-12);}.cls-HamFarmLayer003svg-14{fill:url(#linear-gradient-13);}</style><linearGradient id="linear-gradient" x1="1045.42" y1="86.56" x2="1045.42" y2="51.86" gradientUnits="userSpaceOnUse"><stop offset="0" stop-color="#134a0c"/><stop offset="1" stop-color="#658c60"/></linearGradient><linearGradient id="linear-gradient-2" x1="1045.15" y1="78.4" x2="1045.15" y2="48.94" xlink:href="#linear-gradient"/><linearGradient id="linear-gradient-3" x1="1045.29" y1="71.64" x2="1045.29" y2="44.5" xlink:href="#linear-gradient"/><linearGradient id="linear-gradient-4" x1="1217.48" y1="38.68" x2="1217.48" y2="377.9" gradientUnits="userSpaceOnUse"><stop offset="0" stop-color="#69995d"/><stop offset="0.59" stop-color="#248232"/></linearGradient><linearGradient id="linear-gradient-5" x1="954.48" y1="106.19" x2="954.48" y2="40.38" xlink:href="#linear-gradient"/><linearGradient id="linear-gradient-6" x1="953.97" y1="90.71" x2="953.97" y2="34.84" xlink:href="#linear-gradient"/><linearGradient id="linear-gradient-7" x1="954.22" y1="77.88" x2="954.22" y2="26.42" xlink:href="#linear-gradient"/><linearGradient id="linear-gradient-8" x1="1365.89" y1="102.1" x2="1365.89" y2="17.87" xlink:href="#linear-gradient"/><linearGradient id="linear-gradient-9" x1="1365.24" y1="82.29" x2="1365.24" y2="10.77" xlink:href="#linear-gradient"/><linearGradient id="linear-gradient-10" x1="1365.57" y1="65.87" x2="1365.57" y2="0" xlink:href="#linear-gradient"/><linearGradient id="linear-gradient-11" x1="337.21" y1="172.62" x2="337.21" y2="126.45" xlink:href="#linear-gradient"/><linearGradient id="linear-gradient-12" x1="336.85" y1="161.76" x2="336.85" y2="122.56" xlink:href="#linear-gradient"/><linearGradient id="linear-gradient-13" x1="337.03" y1="152.76" x2="337.03" y2="116.66" xlink:href="#linear-gradient"/></defs><title>HAM_Farm_Layer_003_1</title><g id="Layer_2" data-name="Layer 2"><g id="Layer_17" data-name="Layer 17"><path class="cls-HamFarmLayer003svg-1" d="M1047.71,91.69c0,1.09-5.12.83-5.62,0,1.55-1.21.72-10,0-18.51h5.62C1047.35,80.62,1046.81,88.72,1047.71,91.69Z"/><path class="cls-HamFarmLayer003svg-2" d="M1061.73,78.81l2,2.65-5-1.32,1.1,2.65-4.74-1.46,1.1,2.66-4.74-1.73,1.1,2.66-4.74-2.66-4,4.3-1-4.3L1038,84.92l1.23-2.66L1034.36,84l1.24-2.66-4.88,1.46,1.24-2.65-4.88,1.32,1.9-2.65c5.94-6.82,11.25-16.48,16.37-26.95C1051.55,60.32,1057.11,72.45,1061.73,78.81Z"/><path class="cls-HamFarmLayer003svg-3" d="M1059,71.82l1.72,2.25-4.24-1.13.93,2.26-4-1.24.93,2.25-4-1.46.93,2.25-4-2.25-1.4,3.65L1043,74.75,1038.85,77l1.05-2.25-4.14,1.46,1-2.25-4.14,1.24,1-2.26-4.14,1.13,1.61-2.25c5-5.79,9.55-14,13.91-22.88C1050.36,56.12,1055.08,66.42,1059,71.82Z"/><path class="cls-HamFarmLayer003svg-4" d="M1057.67,65.75l1.54,2-3.8-1,.83,2-3.59-1.11.83,2-3.6-1.31.84,2-3.6-2-2.86,3.27-.91-3.27-3.7,2,.94-2-3.7,1.31.94-2-3.7,1.11.93-2-3.7,1,1.44-2c4.33-5,8-13.21,11.75-20.89a.65.65,0,0,1,1.11-.08C1050.13,51.26,1054.32,61.14,1057.67,65.75Z"/></g><g id="Layer_7" data-name="Layer 7"><path class="cls-HamFarmLayer003svg-5" d="M2435,377.79C2266.64,234.43,2084.14,88,1815.37,107.49,1508.27,132.23,1354.1-4.38,1123.29,52.8c-254.2,76.83-955.09,140.63-955.1,140.64C96.48,198.13,53,212.73,0,225.4V377.9l857.72-.11Z"/></g><g id="Layer_16" data-name="Layer 16"><path class="cls-HamFarmLayer003svg-1" d="M958.81,115.91c0,2.07-9.71,1.58-10.64,0,2.94-2.28,1.36-19,0-35.1h10.64C958.14,94.92,957.11,110.28,958.81,115.91Z"/><path class="cls-HamFarmLayer003svg-6" d="M985.42,91.49l3.85,5L979.77,94l2.09,5-9-2.77,2.09,5L966,98l2.09,5-9-5-7.52,8.15L949.65,98l-9.25,5,2.34-5-9.24,3.27,2.34-5L926.6,99l2.34-5-9.25,2.51,3.6-5c11.27-12.93,21.34-31.26,31.06-51.11C966.11,56.43,976.66,79.43,985.42,91.49Z"/><path class="cls-HamFarmLayer003svg-7" d="M980.24,78.23l3.26,4.27-8.06-2.13,1.78,4.27-7.63-2.35,1.77,4.28-7.63-2.78,1.77,4.27-7.63-4.27-2.65,6.92-5.35-6.92L942,88.06l2-4.27-7.85,2.78,2-4.28-7.85,2.35,2-4.27-7.85,2.13,3-4.27c9.57-11,18.12-26.54,26.37-43.39C963.84,48.46,972.8,68,980.24,78.23Z"/><path class="cls-HamFarmLayer003svg-8" d="M977.7,66.73l2.93,3.82-7.21-1.91L975,72.46l-6.83-2.1,1.59,3.82-6.83-2.49,1.59,3.83-6.83-3.83-5.42,6.19-1.73-6.19-7,3.83,1.77-3.83-7,2.49,1.78-3.82-7,2.1,1.77-3.82-7,1.91,2.73-3.82c8.21-9.42,15.2-25.07,22.28-39.63a1.22,1.22,0,0,1,2.1-.15C963.4,39.23,971.35,58,977.7,66.73Z"/><path class="cls-HamFarmLayer003svg-1" d="M1371.44,114.55c0,2.65-12.43,2-13.62,0,3.76-2.92,1.74-24.37,0-44.93h13.62C1370.58,87.68,1369.26,107.34,1371.44,114.55Z"/><path class="cls-HamFarmLayer003svg-9" d="M1405.49,83.28l4.93,6.45-12.15-3.22,2.67,6.44-11.5-3.54,2.67,6.44-11.51-4.19,2.67,6.45-11.5-6.45-9.63,10.44-2.43-10.44-11.83,6.45,3-6.45-11.82,4.19,3-6.44L1330.21,93l3-6.44-11.83,3.22,4.6-6.45c14.43-16.55,27.32-40,39.76-65.41C1380.78,38.41,1394.28,67.84,1405.49,83.28Z"/><path class="cls-HamFarmLayer003svg-10" d="M1398.86,66.31l4.18,5.47-10.31-2.73,2.27,5.47-9.77-3L1387.5,77l-9.77-3.55L1380,78.9l-9.77-5.47-3.39,8.86L1360,73.43l-10,5.47,2.54-5.47-10,3.55,2.54-5.47-10,3,2.54-5.47-10,2.73,3.91-5.47c12.25-14.05,23.19-34,33.76-55.54C1377.88,28.21,1389.34,53.2,1398.86,66.31Z"/><path class="cls-HamFarmLayer003svg-11" d="M1395.62,51.59l3.74,4.89L1390.14,54l2,4.89-8.74-2.69,2,4.89L1376.73,58l2,4.89L1370,58l-7,7.92-2.2-7.92-9,4.89,2.27-4.89-9,3.18,2.27-4.89-9,2.69,2.27-4.89-9,2.44,3.49-4.89c10.51-12.05,19.47-32.08,28.52-50.71a1.56,1.56,0,0,1,2.69-.2C1377.31,16.4,1387.49,40.4,1395.62,51.59Z"/><path class="cls-HamFarmLayer003svg-1" d="M340.25,179.44c0,1.45-6.81,1.1-7.47,0,2.06-1.6,1-13.35,0-24.62h7.47C339.78,164.71,339.05,175.49,340.25,179.44Z"/><path class="cls-HamFarmLayer003svg-12" d="M358.91,162.31l2.7,3.53L355,164.07l1.47,3.53-6.31-1.94,1.47,3.53-6.31-2.29,1.47,3.53-6.31-3.53-5.28,5.72-1.33-5.72-6.48,3.53L329,166.9l-6.48,2.29,1.64-3.53-6.49,1.94,1.64-3.53-6.48,1.77,2.52-3.53c7.91-9.08,15-21.93,21.79-35.86C345.37,137.71,352.77,153.84,358.91,162.31Z"/><path class="cls-HamFarmLayer003svg-13" d="M355.28,153l2.29,3-5.65-1.5,1.24,3-5.35-1.65,1.24,3-5.35-1.95,1.24,3-5.35-3-1.86,4.86L334,156.9l-5.51,3,1.39-3-5.5,1.95,1.39-3-5.5,1.65,1.39-3-5.5,1.5,2.14-3c6.71-7.7,12.71-18.61,18.5-30.44C343.78,132.12,350.06,145.82,355.28,153Z"/><path class="cls-HamFarmLayer003svg-14" d="M353.5,144.93l2.05,2.69-5.05-1.34,1.11,2.68-4.79-1.48,1.12,2.68-4.79-1.74,1.11,2.68-4.79-2.68-3.8,4.34-1.21-4.34-4.92,2.68,1.24-2.68-4.92,1.74,1.25-2.68L322.18,149l1.25-2.68-4.92,1.34,1.91-2.69c5.76-6.6,10.67-17.58,15.63-27.79a.85.85,0,0,1,1.47-.11C343.47,125.65,349.05,138.8,353.5,144.93Z"/></g></g></svg>