<svg xmlns="http://www.w3.org/2000/svg" xmlns:xlink="http://www.w3.org/1999/xlink" viewBox="0 0 2292.69 400.98"><defs><style>.cls-HamFarmLayer002svg-1{fill:url(#linear-gradient);}.cls-HamFarmLayer002svg-2{fill:#25130d;}.cls-HamFarmLayer002svg-3{fill:#b51818;}.cls-HamFarmLayer002svg-4{fill:url(#linear-gradient-2);}.cls-HamFarmLayer002svg-5{fill:#881212;}.cls-HamFarmLayer002svg-6{fill:#2a2b2a;}.cls-HamFarmLayer002svg-7{fill:#f8f4e3;}.cls-HamFarmLayer002svg-15,.cls-HamFarmLayer002svg-16,.cls-HamFarmLayer002svg-17,.cls-HamFarmLayer002svg-23,.cls-HamFarmLayer002svg-24,.cls-HamFarmLayer002svg-25,.cls-HamFarmLayer002svg-8,.cls-HamFarmLayer002svg-9{fill:none;}.cls-HamFarmLayer002svg-8{stroke:#f8f4e3;stroke-width:8px;}.cls-HamFarmLayer002svg-16,.cls-HamFarmLayer002svg-17,.cls-HamFarmLayer002svg-23,.cls-HamFarmLayer002svg-24,.cls-HamFarmLayer002svg-25,.cls-HamFarmLayer002svg-8,.cls-HamFarmLayer002svg-9{stroke-miterlimit:10;}.cls-HamFarmLayer002svg-9{stroke:#881212;stroke-width:4px;}.cls-HamFarmLayer002svg-10{fill:#6e4538;}.cls-HamFarmLayer002svg-11{fill:url(#linear-gradient-3);}.cls-HamFarmLayer002svg-12,.cls-HamFarmLayer002svg-14,.cls-HamFarmLayer002svg-22{fill:#ed8385;}.cls-HamFarmLayer002svg-13{fill:#ffbbb6;}.cls-HamFarmLayer002svg-14,.cls-HamFarmLayer002svg-17,.cls-HamFarmLayer002svg-22,.cls-HamFarmLayer002svg-24{stroke:#ed8385;}.cls-HamFarmLayer002svg-14,.cls-HamFarmLayer002svg-22{stroke-linejoin:round;}.cls-HamFarmLayer002svg-14{stroke-width:0.53px;}.cls-HamFarmLayer002svg-16,.cls-HamFarmLayer002svg-23{stroke:#fff;}.cls-HamFarmLayer002svg-16,.cls-HamFarmLayer002svg-17,.cls-HamFarmLayer002svg-23,.cls-HamFarmLayer002svg-24,.cls-HamFarmLayer002svg-25{stroke-linecap:round;}.cls-HamFarmLayer002svg-16{stroke-width:1.43px;}.cls-HamFarmLayer002svg-17{stroke-width:1.02px;}.cls-HamFarmLayer002svg-18{fill:#1a1a1a;}.cls-HamFarmLayer002svg-19{fill:#ff9cd2;}.cls-HamFarmLayer002svg-20{fill:url(#linear-gradient-4);}.cls-HamFarmLayer002svg-21{fill:url(#linear-gradient-5);}.cls-HamFarmLayer002svg-22{stroke-width:1.51px;}.cls-HamFarmLayer002svg-23{stroke-width:4.07px;}.cls-HamFarmLayer002svg-24{stroke-width:3.66px;}.cls-HamFarmLayer002svg-25{stroke:#1a1a1a;stroke-width:3.92px;}.cls-HamFarmLayer002svg-26{fill:#49261a;}</style><linearGradient id="linear-gradient" x1="1433.59" y1="346.62" x2="1433.59" y2="400.98" gradientUnits="userSpaceOnUse"><stop offset="0" stop-color="#69995d"/><stop offset="0.59" stop-color="#248232"/></linearGradient><linearGradient id="linear-gradient-2" x1="974.18" y1="119.38" x2="1023.48" y2="-13.58" gradientUnits="userSpaceOnUse"><stop offset="0.18" stop-color="#2a2b2a"/><stop offset="0.57" stop-color="#3c3d3c"/><stop offset="1" stop-color="#555"/></linearGradient><linearGradient id="linear-gradient-3" x1="307.7" y1="754.8" x2="923.49" y2="481.11" gradientUnits="userSpaceOnUse"><stop offset="0" stop-color="#248232"/><stop offset="0.28" stop-color="#33873b"/><stop offset="0.81" stop-color="#5a9454"/><stop offset="1" stop-color="#69995d"/></linearGradient><linearGradient id="linear-gradient-4" x1="845.33" y1="235.71" x2="992.24" y2="235.71" gradientUnits="userSpaceOnUse"><stop offset="0" stop-color="#7a5d32"/><stop offset="1" stop-color="#f4b964"/></linearGradient><linearGradient id="linear-gradient-5" x1="918.79" y1="290.86" x2="918.79" y2="180.56" gradientUnits="userSpaceOnUse"><stop offset="0" stop-color="#7a5d32"/><stop offset="0.58" stop-color="#f4b964" stop-opacity="0"/></linearGradient></defs><title>HAM_Farm_Layer_002</title><g id="Layer_2" data-name="Layer 2"><g id="Layer_6" data-name="Layer 6"><line class="cls-HamFarmLayer002svg-1" x1="574.48" y1="346.62" x2="2292.69" y2="400.98"/></g><g id="Layer_5" data-name="Layer 5"><polygon class="cls-HamFarmLayer002svg-2" points="1284.29 260.55 1238.71 261.17 1238.71 202.06 1284.29 202.06 1284.29 260.55"/><polygon class="cls-HamFarmLayer002svg-2" points="1219.3 261.28 1089.41 263.55 1089.41 174.88 1219.3 174.88 1219.3 261.28"/></g><g id="Layer_3" data-name="Layer 3"><polygon class="cls-HamFarmLayer002svg-3" points="1054.64 145.55 1054.64 263.55 1114.74 262.61 1115.57 189.55 1207.57 191.55 1206.77 261.5 1243.42 261.06 1243.57 208.55 1279.57 208.55 1279.57 260.55 1303.64 260.55 1303.64 204.55 1233.64 156.55 1191.64 57.55 1150.64 12.55 1111.64 47.55 1067.64 131.55 1054.64 145.55"/><polygon class="cls-HamFarmLayer002svg-4" points="1157.72 0.43 898.48 45.73 867.63 75.07 822.23 153.13 1054.64 142.55 1111.64 44.55 1157.72 0.43"/><polygon class="cls-HamFarmLayer002svg-5" points="826.64 160.55 1054.64 145.55 1054.64 263.55 826.64 259.55 826.64 160.55"/><polygon class="cls-HamFarmLayer002svg-6" points="1142.54 82.52 1142.54 50.91 1160.85 52.01 1160.85 84.04 1142.54 82.52"/><path class="cls-HamFarmLayer002svg-7" d="M1145.67,54.22l12,.73V80.64l-12-1V54.22m-6.25-6.63V85.4l5.73.47,12,1,6.77.56V49.07l-5.87-.36L1146,48l-6.62-.4Z"/><polygon class="cls-HamFarmLayer002svg-8" points="1243.42 265.06 1243.57 208.55 1279.57 208.55 1279.57 264.55 1243.42 265.06"/><polygon class="cls-HamFarmLayer002svg-8" points="1114.74 262.61 1115.57 189.55 1207.57 191.55 1206.77 261.5 1114.74 262.61"/><line class="cls-HamFarmLayer002svg-9" x1="1060.07" y1="136.71" x2="1231.83" y2="144.06"/><polyline class="cls-HamFarmLayer002svg-6" points="1150.64 12.55 1191.64 57.55 1233.64 156.55 1303.64 204.55 1313.79 204.55 1240.64 149.55 1198.64 50.55 1157.64 5.55 1150.64 12.55"/><polyline class="cls-HamFarmLayer002svg-8" points="822.45 157.03 1054.64 142.55 1067.64 128.55 1111.64 44.55 1157.64 5.55 1198.64 50.55 1240.64 149.55 1316.05 201.25"/></g><g id="Layer_8" data-name="Layer 8"><path class="cls-HamFarmLayer002svg-10" d="M1399.18,230.78h3.59a1,1,0,0,1,1,1v36.66a0,0,0,0,1,0,0h-5.59a0,0,0,0,1,0,0V231.78a1,1,0,0,1,1-1Z" transform="translate(11.9 -59.43) rotate(2.44)"/><path class="cls-HamFarmLayer002svg-10" d="M1555,242.34h3.59a1,1,0,0,1,1,1V280a0,0,0,0,1,0,0H1554a0,0,0,0,1,0,0V243.34A1,1,0,0,1,1555,242.34Z" transform="translate(12.53 -66.05) rotate(2.44)"/><path class="cls-HamFarmLayer002svg-10" d="M1693.15,253.63h3.59a1,1,0,0,1,1,1v36.66a0,0,0,0,1,0,0h-5.59a0,0,0,0,1,0,0V254.63A1,1,0,0,1,1693.15,253.63Z" transform="translate(-11.64 86.35) rotate(-2.91)"/><path class="cls-HamFarmLayer002svg-10" d="M1836.69,262.07h3.59a1,1,0,0,1,1,1v46.47a0,0,0,0,1,0,0h-5.59a0,0,0,0,1,0,0V263.07A1,1,0,0,1,1836.69,262.07Z" transform="translate(28.75 -146.15) rotate(4.59)"/><polygon class="cls-HamFarmLayer002svg-10" points="1400.72 244.07 1303.42 238.34 1303.48 231.1 1400.78 236.83 1400.72 244.07"/><polygon class="cls-HamFarmLayer002svg-10" points="1400.95 259.71 1303.64 253.98 1303.7 246.74 1401 252.47 1400.95 259.71"/><polygon class="cls-HamFarmLayer002svg-10" points="1556.53 255.15 1402.48 247.73 1402.59 240.49 1556.65 247.91 1556.53 255.15"/><polygon class="cls-HamFarmLayer002svg-10" points="1556.32 272 1402.5 260.66 1402.8 253.42 1556.62 264.76 1556.32 272"/><polygon class="cls-HamFarmLayer002svg-10" points="1694.65 267.5 1556.66 256.5 1556.98 249.26 1694.97 260.26 1694.65 267.5"/><polygon class="cls-HamFarmLayer002svg-10" points="1696.25 283.01 1558.26 272.01 1558.57 264.78 1696.56 275.77 1696.25 283.01"/><polygon class="cls-HamFarmLayer002svg-10" points="1839.68 276 1694.95 266.86 1695.52 260.66 1840.25 267.8 1839.68 276"/><polyline class="cls-HamFarmLayer002svg-10" points="1695.26 276.66 1839.71 288.93 1839.4 296.17 1694.95 281.9"/><polygon class="cls-HamFarmLayer002svg-10" points="1957.39 288.23 1839.56 274.13 1839.87 266.89 1957.7 281 1957.39 288.23"/><polygon class="cls-HamFarmLayer002svg-10" points="1956.72 316.01 1839.87 294.71 1840.48 287.49 1957.54 307.8 1956.72 316.01"/></g><g id="Layer_12" data-name="Layer 12"><path class="cls-HamFarmLayer002svg-10" d="M1007.26,219.2h3.5a1,1,0,0,1,1,1v39.86a0,0,0,0,1,0,0h-5.5a0,0,0,0,1,0,0V220.2a1,1,0,0,1,1-1Z" transform="translate(-8.88 41.08) rotate(-2.32)"/></g><g id="Layer_11" data-name="Layer 11"><path class="cls-HamFarmLayer002svg-11" d="M44,395.55h2222.1c-.13-1.53-.25-3.06-.38-4.59-230.87-58-427.32-86.4-574.53-101.39-165.77-16.88-320.42-29.54-374-31.19-158.4-4.88-239.24,6.83-390.06-5.55C820,244,745.77,236.69,687.65,227.22c-91-14-251.29-.7-383.54,28.26C214.07,275.19,74.82,351.34,0,395.55"/></g><g id="Layer_10" data-name="Layer 10"><path class="cls-HamFarmLayer002svg-12" d="M1354.24,240.43a5.47,5.47,0,0,1-2.73-1.92c-1.52-2.16-.56-4.89-1.11-5s-1.87,1.89-1.84,4.14a7.09,7.09,0,0,0,2.88,5.17"/><path class="cls-HamFarmLayer002svg-12" d="M1386.1,262.6c.49,4.62,2.36,9.9,2,10.15-.7.51-4.4.77-5.61.21s-1.5-7-2.47-10.36"/><path class="cls-HamFarmLayer002svg-12" d="M1362.92,262.81c1.09,3.53,4.66,8.2,4.1,8.85s-5,.56-6.24,0-2.94-5.45-3.91-8.85"/><path class="cls-HamFarmLayer002svg-13" d="M1373,238.67a37.12,37.12,0,0,0-14.32-1.66,11.51,11.51,0,0,0-4.83,1.43,12,12,0,0,0-4.6,5.36c-3.53,7.22,1,16.95,1.44,17.94a12.22,12.22,0,0,0,.15,2.94c.31,1.78,1.21,6.29,2.34,7.1a4.65,4.65,0,0,0,3.61.45c1.09-.17,1.35-.51,1.44-.68.2-.37,0-.76-.08-1.35a35.54,35.54,0,0,1-.75-5.6,24.8,24.8,0,0,0,5.27,2,25.12,25.12,0,0,0,10,.52c.36,1.32,1.41,4.57,1.69,5.39s.41,1.15.68,1.36c.71.55,4.76-.24,5-.6a1.84,1.84,0,0,0,.22-1.36c-.07-1.22-.89-5.18-.4-6.29.25-.58,5.51-1.42,8.24-5.29a16.57,16.57,0,0,0,3-6.36"/><path class="cls-HamFarmLayer002svg-12" d="M1390.24,256.72a17.15,17.15,0,0,1-12.79-3.62c-5.78-4.8-4.74-12.73-4.74-12.73L1391.1,254A15.16,15.16,0,0,1,1390.24,256.72Z"/><g id="Layer_4" data-name="Layer 4"><path id="path8" class="cls-HamFarmLayer002svg-13" d="M1388.13,254.46c-5.6,0-7.79.17-11.67-3.1a13.34,13.34,0,0,1-5.12-10.71,15.88,15.88,0,0,1,2-6.78h0a5.54,5.54,0,0,1-1.9-2.35,7.31,7.31,0,0,1-.34-3c0-1.33,0-3,.09-4.93a.5.5,0,0,1,.52-.48h.1a13.37,13.37,0,0,1,4,1.76,9,9,0,0,1,3,2.71c2.61-1.81,5.36-2.47,9.26-2.47s6.64.66,9.26,2.47a8.86,8.86,0,0,1,3-2.71A13.24,13.24,0,0,1,1405,223c.09,2.19.12,4.07.12,5.53a7.31,7.31,0,0,1-.34,3,5.63,5.63,0,0,1-1.9,2.36h0a16,16,0,0,1,2,6.77,13.38,13.38,0,0,1-5.12,10.71C1395.91,254.63,1393.73,254.44,1388.13,254.46Z"/><path id="path10" class="cls-HamFarmLayer002svg-14" d="M1402.82,233a16.85,16.85,0,0,1-1.42-2.87c-.67-2-.64-3.83,1.5-5.38-.15.39-.9.85-.94,1.6-.06,1.19,1,1.4,1,2.54s-.49,1.35-.52,2.61A4.09,4.09,0,0,0,1402.82,233Z"/><path id="path12" class="cls-HamFarmLayer002svg-14" d="M1373.44,233a16.85,16.85,0,0,0,1.42-2.87c.67-2,.63-3.83-1.5-5.38.14.39.89.85.93,1.6.07,1.19-1,1.4-1,2.54s.49,1.35.52,2.61A4.09,4.09,0,0,1,1373.44,233Z"/><line id="line14" class="cls-HamFarmLayer002svg-15" x1="1397.39" y1="227.65" x2="1398.91" y2="228.92"/><line id="line16" class="cls-HamFarmLayer002svg-15" x1="1378.88" y1="227.65" x2="1377.35" y2="228.92"/><path id="path18" class="cls-HamFarmLayer002svg-16" d="M1376.61,234c-.17.3-.35.6-.52.93"/><path id="path20" class="cls-HamFarmLayer002svg-16" d="M1385.05,227.77a13.23,13.23,0,0,0-6.8,3.93"/><line id="line22" class="cls-HamFarmLayer002svg-17" x1="1375.87" y1="242.58" x2="1378.01" y2="242.58"/><line id="line24" class="cls-HamFarmLayer002svg-17" x1="1398.33" y1="242.58" x2="1400.47" y2="242.58"/><circle id="circle26" class="cls-HamFarmLayer002svg-18" cx="1397.36" cy="238.13" r="1.56"/><circle id="circle28" class="cls-HamFarmLayer002svg-18" cx="1378.89" cy="238.13" r="1.56"/><path id="path30" class="cls-HamFarmLayer002svg-19" d="M1388.13,241.29c-4.18,0-7.56-.29-7.56,2.22s3.38,5.25,7.56,5.25,7.55-2.75,7.55-5.25S1392.3,241.29,1388.13,241.29Z"/><rect id="rect32" class="cls-HamFarmLayer002svg-18" x="1390.62" y="242.97" width="0.97" height="3.23" rx="0.47"/><rect id="rect34" class="cls-HamFarmLayer002svg-18" x="1384.66" y="242.97" width="0.97" height="3.23" rx="0.47"/></g><path class="cls-HamFarmLayer002svg-12" d="M1259.56,289.86a8.32,8.32,0,0,1-4.15-2.92c-2.31-3.27-.85-7.42-1.68-7.63s-2.85,2.86-2.8,6.28c0,4.4,3.63,7.28,4.37,7.86"/><path class="cls-HamFarmLayer002svg-12" d="M1308,323.54c.74,7,3.59,15,3.08,15.42-1.06.77-6.69,1.18-8.53.33s-2.27-10.59-3.75-15.75"/><path class="cls-HamFarmLayer002svg-12" d="M1272.75,323.86c1.65,5.37,7.08,12.46,6.23,13.45s-7.65.85-9.49,0-4.45-8.28-5.94-13.45"/><path class="cls-HamFarmLayer002svg-13" d="M1288.11,287.19c-5.31-1.61-13.42-3.43-21.76-2.52a17.45,17.45,0,0,0-7.33,2.17,18.12,18.12,0,0,0-7,8.13c-5.37,11,1.46,25.76,2.18,27.26a18.89,18.89,0,0,0,.23,4.47c.47,2.7,1.85,9.56,3.55,10.79s3.92.94,5.5.69,2-.78,2.17-1c.31-.58.07-1.16-.11-2.07s-1.34-6.93-1.15-8.5a37.58,37.58,0,0,0,8,3.09,38.34,38.34,0,0,0,15.11.81c.55,2,2.15,6.93,2.57,8.19s.62,1.74,1,2.06c1.09.83,7.23-.37,7.67-.92a2.87,2.87,0,0,0,.35-2.06c-.12-1.86-1.36-7.86-.62-9.57.38-.87,8.38-2.14,12.52-8a25.4,25.4,0,0,0,4.52-9.65"/><g id="Layer_4-2" data-name="Layer 4"><path id="path8-2" data-name="path8" class="cls-HamFarmLayer002svg-13" d="M1311.05,311.18c-8.51,0-11.83.25-17.73-4.72-8.06-6.78-7.84-14.92-7.78-16.27a24.25,24.25,0,0,1,3-10.29h0a8.35,8.35,0,0,1-2.88-3.58c-.49-1.21-.52-2.23-.52-4.48,0-2,0-4.54.14-7.49a.76.76,0,0,1,.79-.73h0l.15,0a20.33,20.33,0,0,1,6.11,2.67c2.85,1.86,3.66,2.74,4.62,4.13,4-2.76,8.15-3.76,14.07-3.76s10.09,1,14.06,3.76c1-1.39,1.77-2.28,4.62-4.13a20.34,20.34,0,0,1,7-2.87c.13,3.34.16,6.18.17,8.4s0,3.27-.52,4.48a8.35,8.35,0,0,1-2.88,3.58h0a24.31,24.31,0,0,1,3,10.29c0,1.35.28,9.49-7.79,16.28C1322.88,311.43,1319.55,311.15,1311.05,311.18Z"/><line id="line14-2" data-name="line14" class="cls-HamFarmLayer002svg-15" x1="1325.11" y1="270.44" x2="1327.43" y2="272.38"/><line id="line16-2" data-name="line16" class="cls-HamFarmLayer002svg-15" x1="1297" y1="270.44" x2="1294.67" y2="272.38"/><line id="line22-2" data-name="line22" class="cls-HamFarmLayer002svg-15" x1="1292.42" y1="293.12" x2="1295.67" y2="293.12"/><line id="line24-2" data-name="line24" class="cls-HamFarmLayer002svg-15" x1="1326.54" y1="293.12" x2="1329.8" y2="293.12"/></g><path class="cls-HamFarmLayer002svg-12" d="M1480.05,257a6,6,0,0,0,3-2.12c1.68-2.37.62-5.39,1.23-5.54s2.06,2.08,2,4.56c0,3.19-2.64,5.29-3.17,5.71"/><path class="cls-HamFarmLayer002svg-12" d="M1444.9,281.49c-.55,5.1-2.61,10.93-2.24,11.2.76.56,4.85.86,6.19.24s1.65-7.69,2.73-11.44"/><path class="cls-HamFarmLayer002svg-12" d="M1470.47,281.73c-1.2,3.9-5.14,9-4.52,9.76s5.55.62,6.89,0,3.24-6,4.31-9.76"/><path class="cls-HamFarmLayer002svg-13" d="M1459.32,255.09a40.76,40.76,0,0,1,15.8-1.83,12.68,12.68,0,0,1,5.33,1.58,13.17,13.17,0,0,1,5.07,5.91c3.9,8-1.06,18.7-1.58,19.79a13.43,13.43,0,0,1-.17,3.25c-.34,2-1.34,6.94-2.58,7.83a5.08,5.08,0,0,1-4,.5c-1.2-.19-1.48-.56-1.58-.74-.22-.42,0-.84.08-1.5a38.5,38.5,0,0,0,.84-6.18,27.34,27.34,0,0,1-5.83,2.25,27.79,27.79,0,0,1-11,.58c-.4,1.46-1.56,5-1.87,6s-.45,1.27-.75,1.5c-.79.6-5.25-.27-5.57-.67a2.06,2.06,0,0,1-.25-1.5c.08-1.35,1-5.71.45-6.94-.28-.64-6.08-1.56-9.09-5.84a18.29,18.29,0,0,1-3.29-7"/><g id="Layer_4-3" data-name="Layer 4"><path id="path8-3" data-name="path8" class="cls-HamFarmLayer002svg-13" d="M1429.78,269.09a14.76,14.76,0,0,1-5.65-11.82,17.49,17.49,0,0,1,2.21-7.47h0a6.17,6.17,0,0,1-2.1-2.6,8.14,8.14,0,0,1-.37-3.26c0-1.61,0-3.67.12-6.1a14.71,14.71,0,0,1,5.1,2.09,9.9,9.9,0,0,1,3.35,3c2.89-2,5.92-2.73,10.22-2.73s7.33.73,10.21,2.73a10,10,0,0,1,3.36-3,14.67,14.67,0,0,1,4.44-1.94l.1,0h0a.56.56,0,0,1,.58.53c.07,2.14.1,4,.1,5.44a7.93,7.93,0,0,1-.38,3.26,6.15,6.15,0,0,1-2.09,2.6h0a17.63,17.63,0,0,1,2.21,7.47,14.76,14.76,0,0,1-5.66,11.82c-4.28,3.61-6.69,3.4-12.87,3.43S1434.07,272.7,1429.78,269.09Z"/><line id="line14-3" data-name="line14" class="cls-HamFarmLayer002svg-15" x1="1430.76" y1="244.33" x2="1432.44" y2="242.93"/><line id="line16-3" data-name="line16" class="cls-HamFarmLayer002svg-15" x1="1454.55" y1="244.33" x2="1452.86" y2="242.93"/><line id="line22-3" data-name="line22" class="cls-HamFarmLayer002svg-15" x1="1453.82" y1="259.4" x2="1456.19" y2="259.4"/><line id="line24-3" data-name="line24" class="cls-HamFarmLayer002svg-15" x1="1429.04" y1="259.4" x2="1431.4" y2="259.4"/></g></g><g id="Layer_15" data-name="Layer 15"><path class="cls-HamFarmLayer002svg-10" d="M765.43,213.43H769a1,1,0,0,1,1,1v36.66a0,0,0,0,1,0,0h-5.59a0,0,0,0,1,0,0V214.43A1,1,0,0,1,765.43,213.43Z" transform="translate(10.59 -32.46) rotate(2.44)"/><path class="cls-HamFarmLayer002svg-10" d="M884,215.08h3.59a1,1,0,0,1,1,1v36.66a0,0,0,0,1,0,0H883a0,0,0,0,1,0,0V216.08A1,1,0,0,1,884,215.08Z" transform="translate(10.76 -37.5) rotate(2.44)"/><rect class="cls-HamFarmLayer002svg-10" x="681.23" y="218.22" width="86" height="7.25" transform="translate(-8.39 29.53) rotate(-2.32)"/><rect class="cls-HamFarmLayer002svg-10" x="681.88" y="234.41" width="86" height="7.25" transform="translate(-9.05 29.57) rotate(-2.32)"/><polygon class="cls-HamFarmLayer002svg-10" points="887.97 233.67 770.12 223.63 770.43 216.39 888.28 226.43 887.97 233.67"/><polygon class="cls-HamFarmLayer002svg-10" points="885.42 248.27 767.56 238.23 767.87 230.99 885.73 241.03 885.42 248.27"/><polygon class="cls-HamFarmLayer002svg-10" points="1009.14 233.94 888.57 233.73 888.28 226.49 1008.85 226.7 1009.14 233.94"/><polygon class="cls-HamFarmLayer002svg-10" points="1009.03 249.15 888.5 246 888.39 238.75 1008.92 241.91 1009.03 249.15"/><path class="cls-HamFarmLayer002svg-10" d="M681,212.14h3.59a1,1,0,0,1,1,1V249.8a0,0,0,0,1,0,0H680a0,0,0,0,1,0,0V213.14a1,1,0,0,1,1-1Z" transform="translate(-8.8 27.86) rotate(-2.32)"/><path class="cls-HamFarmLayer002svg-10" d="M622.88,219.48h8.57a1,1,0,0,1,1,1v70.23a0,0,0,0,1,0,0H621.88a0,0,0,0,1,0,0V220.48A1,1,0,0,1,622.88,219.48Z" transform="translate(-9.82 25.62) rotate(-2.32)"/><polygon class="cls-HamFarmLayer002svg-10" points="682.96 227.14 626.85 241.07 626.56 233.83 682.67 219.9 682.96 227.14"/><polygon class="cls-HamFarmLayer002svg-10" points="682.96 244.92 626.85 258.86 626.56 251.62 682.67 237.68 682.96 244.92"/><polygon class="cls-HamFarmLayer002svg-10" points="626.68 240.61 579.28 272.88 579.23 258.86 626.39 233.37 626.68 240.61"/><polygon class="cls-HamFarmLayer002svg-10" points="626.68 276.38 579.31 330.51 580.3 306.95 626.39 269.14 626.68 276.38"/></g><g id="Layer_14" data-name="Layer 14"><path class="cls-HamFarmLayer002svg-20" d="M989.14,276.65a4,4,0,0,0,2.26-6.36,70.82,70.82,0,0,1-12-23.53l5.28,3.06a42.31,42.31,0,0,1-7.51-8.06c-3.41-4.79-4.74-8.83-6.12-12.24a82.76,82.76,0,0,0-10.84-18.91l5.84,2.5a94.24,94.24,0,0,1-12.52-11.68c-7.17-8-8.57-12.32-14.18-16.12-3.46-2.35-9.28-5-18.91-4.73-9.63-.29-15.45,2.38-18.91,4.73-5.61,3.8-7,8.11-14.18,16.12a93.63,93.63,0,0,1-12.52,11.68l5.84-2.5a82.76,82.76,0,0,0-10.84,18.91c-1.38,3.41-2.71,7.45-6.12,12.24a42.31,42.31,0,0,1-7.51,8.06l5.28-3.06a70.65,70.65,0,0,1-5,12.52,71.62,71.62,0,0,1-11.13,15.85C869.92,298.09,917.61,293.55,989.14,276.65Z"/><path class="cls-HamFarmLayer002svg-21" d="M989.14,276.65a4,4,0,0,0,2.26-6.36,70.82,70.82,0,0,1-12-23.53l5.28,3.06a42.31,42.31,0,0,1-7.51-8.06c-3.41-4.79-4.74-8.83-6.12-12.24a82.76,82.76,0,0,0-10.84-18.91l5.84,2.5a94.24,94.24,0,0,1-12.52-11.68c-7.17-8-8.57-12.32-14.18-16.12-3.46-2.35-9.28-5-18.91-4.73-9.63-.29-15.45,2.38-18.91,4.73-5.61,3.8-7,8.11-14.18,16.12a93.63,93.63,0,0,1-12.52,11.68l5.84-2.5a82.76,82.76,0,0,0-10.84,18.91c-1.38,3.41-2.71,7.45-6.12,12.24a42.31,42.31,0,0,1-7.51,8.06l5.28-3.06a70.65,70.65,0,0,1-5,12.52,71.62,71.62,0,0,1-11.13,15.85C869.92,298.09,917.61,293.55,989.14,276.65Z"/></g><g id="Layer_18" data-name="Layer 18"><path class="cls-HamFarmLayer002svg-10" d="M1960.21,315.6l134,79.95h56.2l-25.69-10.81,2.24-27.9,88.31,38.71h60.19l-146.83-59.49,2-25.13a3,3,0,0,0-2.75-3.23l-11.52-.92a3,3,0,0,0-3.23,2.75l-1.68,21-148.48-49,.72-8.86a2,2,0,0,0-1.84-2.15l-4.69-.38A2,2,0,0,0,1955,272l-4.54,56.47,8.68.7Zm2-24.94,147.52,60.83-2.05,25.62-146.57-72.77Z"/></g><g id="Layer_13" data-name="Layer 13"><path class="cls-HamFarmLayer002svg-12" d="M1570.58,266.29a15.51,15.51,0,0,1-7.78-5.46c-4.33-6.13-1.59-13.91-3.15-14.3-1.39-.34-5.34,5.37-5.26,11.77.11,8.24,6.81,13.64,8.2,14.72"/><path class="cls-HamFarmLayer002svg-12" d="M1661.25,329.39c1.39,13.14,6.72,28.19,5.77,28.89-2,1.44-12.52,2.21-16,.62s-4.25-19.84-7-29.51"/><path class="cls-HamFarmLayer002svg-12" d="M1595.28,330c3.1,10.05,13.25,23.33,11.66,25.18s-14.31,1.59-17.76,0-8.35-15.5-11.14-25.18"/><path class="cls-HamFarmLayer002svg-13" d="M1624,261.29c-9.94-3-25.13-6.41-40.76-4.72-5.31.58-9.53,1.62-13.72,4.08-7.91,4.64-11.43,11.83-13.09,15.23-10.07,20.57,2.73,48.24,4.08,51.06a34.66,34.66,0,0,0,.42,8.36c.88,5.08,3.47,17.91,6.66,20.22s7.35,1.76,10.3,1.29,3.82-1.46,4.07-1.93c.58-1.07.13-2.16-.21-3.86s-2.51-13-2.15-15.93a70.53,70.53,0,0,0,15,5.79,71.86,71.86,0,0,0,28.32,1.5c1,3.76,4,13,4.81,15.34.86,2.6,1.16,3.28,1.93,3.87,2,1.56,13.55-.7,14.37-1.72s.73-2.42.64-3.86c-.21-3.49-2.53-14.73-1.15-17.92.71-1.64,15.69-4,23.45-15,3.72-5.3,6.47-9.79,8.47-18.08"/><path class="cls-HamFarmLayer002svg-12" d="M1673,312.67s-19.94,3.37-36.39-10.3-13.48-36.24-13.48-36.24L1675.49,305A43.9,43.9,0,0,1,1673,312.67Z"/><g id="Layer_4-4" data-name="Layer 4"><path id="path8-4" data-name="path8" class="cls-HamFarmLayer002svg-13" d="M1667,306.24c-15.94-.07-22.16.46-33.21-8.84-15.1-12.71-14.68-27.95-14.58-30.49a45.3,45.3,0,0,1,5.69-19.27h0a15.68,15.68,0,0,1-5.4-6.7c-.91-2.27-1-4.18-1-8.4,0-3.77.07-8.51.26-14a1.41,1.41,0,0,1,1.48-1.36h0a.86.86,0,0,1,.28,0,37.75,37.75,0,0,1,11.45,5c5.34,3.47,6.84,5.13,8.65,7.72,7.44-5.16,15.26-7,26.35-7s18.9,1.88,26.35,7c1.8-2.6,3.31-4.27,8.64-7.72a38,38,0,0,1,13.15-5.39c.25,6.25.32,11.59.32,15.74s0,6.13-1,8.4a15.77,15.77,0,0,1-5.4,6.71h0a45.42,45.42,0,0,1,5.7,19.27c.1,2.52.52,17.78-14.59,30.49C1689.18,306.71,1683,306.18,1667,306.24Z"/><path id="path10-2" data-name="path10" class="cls-HamFarmLayer002svg-22" d="M1708.83,245.23a47,47,0,0,1-4-8.17c-1.91-5.65-1.81-10.88,4.26-15.31-.4,1.11-2.54,2.43-2.66,4.56-.18,3.4,2.87,4,2.76,7.24s-1.41,3.84-1.48,7.43A11.44,11.44,0,0,0,1708.83,245.23Z"/><path id="path12-2" data-name="path12" class="cls-HamFarmLayer002svg-22" d="M1625.2,245.23a46.23,46.23,0,0,0,4-8.17c1.91-5.65,1.82-10.88-4.26-15.31.41,1.11,2.55,2.43,2.67,4.56.18,3.4-2.88,4-2.76,7.24s1.4,3.84,1.48,7.43A11.37,11.37,0,0,1,1625.2,245.23Z"/><line id="line14-4" data-name="line14" class="cls-HamFarmLayer002svg-15" x1="1693.37" y1="229.92" x2="1697.72" y2="233.55"/><line id="line16-4" data-name="line16" class="cls-HamFarmLayer002svg-15" x1="1640.7" y1="229.92" x2="1636.35" y2="233.55"/><path id="path18-2" data-name="path18" class="cls-HamFarmLayer002svg-23" d="M1634.25,248.07c-.49.85-1,1.7-1.49,2.63"/><path id="path20-2" data-name="path20" class="cls-HamFarmLayer002svg-23" d="M1658.27,230.26c-7.5,1.94-14.34,5.45-19.36,11.18"/><line id="line22-4" data-name="line22" class="cls-HamFarmLayer002svg-24" x1="1632.12" y1="272.41" x2="1638.22" y2="272.41"/><line id="line24-4" data-name="line24" class="cls-HamFarmLayer002svg-24" x1="1696.05" y1="272.41" x2="1702.15" y2="272.41"/><path id="path30-2" data-name="path30" class="cls-HamFarmLayer002svg-19" d="M1667,268.74c-11.88,0-21.51-.82-21.51,6.31S1655.14,290,1667,290s21.51-7.81,21.51-14.95S1678.9,268.74,1667,268.74Z"/><rect id="rect32-2" data-name="rect32" class="cls-HamFarmLayer002svg-18" x="1674.1" y="273.53" width="2.77" height="9.2" rx="1.35"/><rect id="rect34-2" data-name="rect34" class="cls-HamFarmLayer002svg-18" x="1657.16" y="273.53" width="2.77" height="9.2" rx="1.35"/></g><path id="path26" class="cls-HamFarmLayer002svg-25" d="M1688.08,261.69a4.3,4.3,0,0,1,8.6,0"/><path id="path28" class="cls-HamFarmLayer002svg-25" d="M1637.35,261.69a4.3,4.3,0,1,1,8.6,0"/><path id="path36" class="cls-HamFarmLayer002svg-19" d="M1678.94,293.66l15-8.14a1.33,1.33,0,0,1,1.79.53,1.4,1.4,0,0,1,.13.34,10.14,10.14,0,0,1-17.24,9.35,1.32,1.32,0,0,1,0-1.86A1.06,1.06,0,0,1,1678.94,293.66Z"/><path id="path38" class="cls-HamFarmLayer002svg-18" d="M1685.28,297.22a6.34,6.34,0,0,1,10.23-5,10.74,10.74,0,0,0,.35-5.81,1.32,1.32,0,0,0-1.57-1,1.71,1.71,0,0,0-.34.13l-15,8.14a1.31,1.31,0,0,0-.53,1.78,1.61,1.61,0,0,0,.21.3,10.65,10.65,0,0,0,6.88,3.11A6.4,6.4,0,0,1,1685.28,297.22Z"/></g><g id="Layer_20" data-name="Layer 20"><path class="cls-HamFarmLayer002svg-26" d="M1572.27,395.55l-59.62-20.72V335.08a4,4,0,0,0-4-4H1491a4,4,0,0,0-4,4V358l-265.91-46.43,1.05-24.7a4,4,0,0,0-3.82-4.17l-14.92-.64a4,4,0,0,0-4.17,3.83l-.65,15.4L852,251.39l-1.47-35.3a3.07,3.07,0,0,0-3.13-3l-9.4.39a3.07,3.07,0,0,0-2.86,3.26l1.33,32L589.82,254l.51-15.33a3.06,3.06,0,0,0-2.9-3.23l-9.39-.31a3.07,3.07,0,0,0-3.11,3l-4.65,140.13,4.9.16,5,.17,5.53.18,1.3-39.14,252.81-11.18L841,356.82l4.9-.21,5-.2,5.53-.23-1.11-26.8,282.06,66.17h134.55L1218,384.23l2-46.54,267,53.64v4.22Zm-984.4-82.9,1-31.68,248.43-11,1.55,37.23Zm266.51-3.89-1.46-35.09,344.63,51.66-2.34,55.06Z"/></g></g></svg>