<?xml version="1.0" encoding="utf-8"?>
<!-- Generator: Adobe Illustrator 24.0.1, SVG Export Plug-In . SVG Version: 6.00 Build 0)  -->
<svg version="1.1" xmlns="http://www.w3.org/2000/svg" xmlns:xlink="http://www.w3.org/1999/xlink" x="0px" y="0px"
	 viewBox="0 0 512 512" style="enable-background:new 0 0 512 512;" xml:space="preserve">
<style type="text/css">
	.st0{display:none;}
	.st1{display:inline;}
	.st2{fill:#016EEE;stroke:#016EEE;stroke-width:34.9185;stroke-miterlimit:10;}
	.st3{fill:#C54549;}
	.st4{fill:#933436;}
	.st5{fill:none;stroke:#FFFFFF;stroke-width:20;stroke-linejoin:round;stroke-miterlimit:10;}
	.st6{fill:#FFFFFF;}
	.st7{fill:none;stroke:#FFFFFF;stroke-width:20;stroke-linecap:round;stroke-linejoin:round;stroke-miterlimit:10;}
	.st8{fill:#C5651D;}
	.st9{fill:#634127;}
	.st10{fill:#C54549;stroke:#933436;stroke-width:21.1416;stroke-miterlimit:10;}
	.st11{fill:#FFBBB6;stroke:#933436;stroke-width:19.0274;stroke-miterlimit:10;}
	.st12{fill:#999999;}
	.st13{fill:none;stroke:#F19C9D;stroke-width:10.0165;stroke-miterlimit:10;}
	.st14{fill:none;stroke:#933436;stroke-width:10.0165;stroke-linecap:round;stroke-linejoin:round;stroke-miterlimit:10;}
	.st15{fill:#F8D6B4;}
	.st16{fill:#F58A6F;}
	.st17{fill:#85432A;stroke:#653320;stroke-width:21.6919;stroke-miterlimit:10;}
	.st18{fill:none;stroke:#FCEE21;stroke-width:65.0757;stroke-linecap:round;stroke-linejoin:round;stroke-miterlimit:10;}
	.st19{fill:none;stroke:#FF1D25;stroke-width:65.0757;stroke-linecap:round;stroke-linejoin:round;stroke-miterlimit:10;}
	.st20{fill:none;stroke:#FFFFFF;stroke-width:21.6919;stroke-linecap:round;stroke-linejoin:round;stroke-miterlimit:10;}
	.st21{fill:#FFBBB6;}
	.st22{fill:none;stroke:#933436;stroke-width:41.5735;stroke-miterlimit:10;}
	.st23{fill:none;stroke:#FFFFFF;stroke-width:41.5735;stroke-miterlimit:10;}
	.st24{fill:#FFBBB6;stroke:#ED8385;stroke-width:20.0419;stroke-linejoin:round;}
	.st25{fill:#ED8385;stroke:#ED8385;stroke-width:10.021;stroke-linejoin:round;}
	.st26{fill:#ED8385;}
	.st27{fill:none;stroke:#ED8385;stroke-width:20.0419;stroke-linecap:round;stroke-miterlimit:10;}
	.st28{fill:#1A1A1A;}
	.st29{fill:#FF9CD2;stroke:#ED8385;stroke-width:20.0419;stroke-miterlimit:10;}
	.st30{fill:#FF9C9C;stroke:#ED8385;stroke-width:9.8713;stroke-miterlimit:10;}
	.st31{fill:none;stroke:#FFFFFF;stroke-width:9.8713;stroke-linecap:round;stroke-miterlimit:10;}
	.st32{fill:#805757;stroke:#805757;stroke-width:9.8713;stroke-linecap:round;stroke-miterlimit:10;}
</style>
<g id="YFI" class="st0">
	<g class="st1">
		<circle class="st2" cx="256" cy="256" r="233.3"/>
		<g>
			<path class="st3" d="M238.1,385c-23.6,0-37.8-4.3-46.2-13.9c-11.4-13.1-8.7-32.3-5.4-56.7c1.3-9.4,2.8-20,3.7-31.6
				c2.4-31.4,23-43,38-51.5c16-9,21.3-12.9,18.1-27.8c0-0.2-0.1-0.4-0.1-0.7l-7.5-50.4c-0.1-0.6-0.1-1.2-0.1-1.8
				c0.5-14.4,18.8-23.6,31.2-23.6l0.4,0c6.4,0.1,12.1,4.6,13.9,10.8c3.7,13.2,18.7,63.9,32.4,105.4c7.1,21.5,20.9,75.2-3.6,110.9
				c-12.9,18.8-33.8,29.1-62.2,30.6C246.2,384.9,241.9,385,238.1,385z"/>
			<path class="st4" d="M269.8,137c0.1,0,0.2,0,0.3,0c2.1,0,3.9,1.5,4.4,3.5c3.5,12.4,18.6,63.5,32.5,105.8
				c17,51.7,19.6,124.5-56.8,128.4c-4.3,0.2-8.4,0.3-12.1,0.3c-62,0-42.7-30.7-38-91.5c4.1-52.4,65.8-36.7,55.9-82.2l-7.5-50.4
				C248.8,142.9,262.1,137,269.8,137 M269.8,117C269.8,117,269.8,117,269.8,117c-16.4,0-40.5,11.8-41.2,33.2c0,1.2,0,2.4,0.2,3.6
				l7.5,50.4c0.1,0.4,0.1,0.9,0.2,1.3c1.3,6.2,0.1,7.7-0.3,8.2c-2.1,2.6-7.6,5.8-13,8.8c-7.9,4.5-17.8,10-26,18.9
				c-10.1,10.8-15.8,24.4-17.1,40.6c-0.9,11.3-2.3,21.8-3.6,31c-3.6,25.8-6.6,48.2,7.8,64.7c13.4,15.4,35.8,17.3,53.8,17.3
				c4.1,0,8.5-0.1,13.1-0.4c15.8-0.8,29.9-4.3,41.7-10.2c11.6-5.9,21.1-14.2,28.3-24.7c10.8-15.8,16.1-36.1,15.7-60.3
				c-0.4-23.3-6.1-45.2-10.8-59.5c-13.6-41.3-28.6-91.8-32.3-105c-2.9-10.5-12.5-17.9-23.4-18.1C270.2,117,270,117,269.8,117
				L269.8,117z"/>
		</g>
		<path class="st5" d="M237.4,298"/>
		<path class="st5" d="M193.2,291.4"/>
		<g>
			<path class="st6" d="M261.2,331.1c-9,0-17.5-5-22.3-13c-2.7-4.5-3.4-8.9-2.1-13c2-6.5,7.8-9.1,12.1-11c1.5-0.7,2.9-1.3,4-2
				c1.2-0.7,2.3-1.6,3.5-2.5c2.9-2.3,6.5-5.1,11.6-5.1c3.6,0,8.8,1.5,13,8.5c3.5,5.8,4.6,12.5,3.3,19c-1.4,6.8-5.3,12.4-11.1,15.8
				C269.6,330,265.5,331.1,261.2,331.1C261.2,331.1,261.2,331.1,261.2,331.1z"/>
			<path class="st4" d="M268.1,294.5c1.4,0,2.8,1,4.4,3.6c4.5,7.6,2.6,17-4.3,21.1c-2.2,1.3-4.5,1.9-6.9,1.9
				c-5.3,0-10.6-2.9-13.7-8.1c-4.5-7.6,3.7-8.2,10.6-12.3C262.6,298,265.4,294.5,268.1,294.5 M268.1,274.5c-8.5,0-14.3,4.5-17.7,7.2
				c-0.9,0.7-1.8,1.4-2.5,1.8c-0.7,0.4-1.9,1-3.1,1.5c-4.9,2.2-14.1,6.4-17.5,17.1c-1.5,4.8-2.2,12.3,3,21.1
				c6.6,11,18.4,17.9,30.9,17.9c6.1,0,12-1.6,17.2-4.7c8.1-4.8,13.9-13,15.8-22.4c1.8-8.9,0.2-18.1-4.5-26.1
				C282.7,276.3,273.2,274.5,268.1,274.5L268.1,274.5z"/>
		</g>
		<path class="st7" d="M416.6,327.1l-37.4,0.4c-12.2,0.1-22.3,9.5-23.2,21.6c-1,13.4-4.8,26.2-10.8,37.9
			c-15.4,29.8-45.5,52.3-82.6,57.7c-59.4,8.7-114.1-29.7-122.3-85.6c-3.3-22.8,1.6-44.9,12.6-63.8l-41.9,30.6"/>
		<g>
			<path class="st8" d="M417.4,380.6c-8.8,0-16-7.2-16-16v-75c0-8.8,7.2-16,16-16h18.8c8.8,0,16,7.2,16,16v75c0,8.8-7.2,16-16,16
				H417.4z"/>
			<path class="st9" d="M436.3,283.6c3.3,0,6,2.7,6,6v75c0,3.3-2.7,6-6,6h-18.8c-3.3,0-6-2.7-6-6v-75c0-3.3,2.7-6,6-6H436.3
				 M436.3,263.6h-18.8c-14.3,0-26,11.7-26,26v75c0,14.3,11.7,26,26,26h18.8c14.3,0,26-11.7,26-26v-75
				C462.3,275.3,450.6,263.6,436.3,263.6L436.3,263.6z"/>
		</g>
		<path class="st7" d="M359.2,216.7c11-18.9,15.9-41,12.6-63.8c-8.2-55.9-62.9-94.3-122.3-85.6c-37.1,5.4-67.2,27.9-82.6,57.7
			c-6.1,11.7-9.8,24.5-10.8,37.9c-0.9,12.1-11.1,21.5-23.2,21.6l-37.4,0.4"/>
		<g>
			<path class="st8" d="M75.7,238.1c-8.8,0-16-7.2-16-16v-75c0-8.8,7.2-16,16-16h18.8c8.8,0,16,7.2,16,16v75c0,8.8-7.2,16-16,16
				H75.7z"/>
			<path class="st9" d="M94.6,141.2c3.3,0,6,2.7,6,6v75c0,3.3-2.7,6-6,6H75.7c-3.3,0-6-2.7-6-6v-75c0-3.3,2.7-6,6-6H94.6
				 M94.6,121.2H75.7c-14.3,0-26,11.7-26,26v75c0,14.3,11.7,26,26,26h18.8c14.3,0,26-11.7,26-26v-75
				C120.6,132.8,108.9,121.2,94.6,121.2L94.6,121.2z"/>
		</g>
		<path class="st7" d="M401.1,186l-41.9,30.6"/>
	</g>
</g>
<g id="yCRV" class="st0">
	<g class="st1">
		<path class="st10" d="M66.4,300.8C100.8,404.9,121,433.3,164,433.3c32.7,0,60.7-34.3,72.2-82.9c46.9-21,157-46.1,172.5-49.6
			c10.1-2.2,36-15.2,46.4-39.6c2.8-6.6,3.9-12.3,5.2-19.8c0,0,5.4-31.1,0-59.3c-9.9-52-88.5-98.1-107.5-109.2
			c-30.2-17.7-59.3-33.5-147.9-53.3S74.2,66.9,66.4,97S32,196.8,66.4,300.8z"/>
		<path class="st11" d="M245.6,210.4c-3.5-30.5-8.4-59.8-20.1-83.4c-1.7-3.5-3.8-6.8-5.9-10.1c-7.5-11.4-30.2-50.9,26-37.3
			c65.4,15.9,99.5,37.5,126.2,56.5s21.3,42.2-19.4,56.5S245.6,210.4,245.6,210.4z"/>
		<path class="st10" d="M235.7,338.1c0-52.5-32.5-61.3-72.7-61.3s-73.7,8.8-73.7,61.3s33.6,95.1,73.7,95.1S235.7,390.6,235.7,338.1z
			"/>
		<path class="st6" d="M157.1,466.9c3.5,0.2,6.6,2.1,8.5,5c5,8.2,13.7,13.4,23.2,13.9c16,0.9,29.6-11.5,30.5-27.4
			c0.4-7.7-2.2-15.2-7.4-20.9c-5.1-5.7-12.2-9.1-19.9-9.6c-0.1,0-0.3,0-0.4,0c-5.5-0.3-9.9-4.8-10-10.3l-1.3-61.1c0-0.3,0-0.5,0-0.8
			c0.3-5.1,0-21.6-14.9-22.4c-5.1-0.3-8.9,1.2-11.8,4.5c-3.1,3.5-4.9,9.1-5.3,15.6c0,0.3-0.1,0.7-0.1,1l-9.3,61.1
			c-0.8,5.5-5.8,9.4-11.4,8.9l-0.3,0c-0.2,0-0.5,0-0.7-0.1c-7.7-0.4-15.1,2.2-20.9,7.4c-5.8,5.2-9.2,12.3-9.6,20
			c-0.4,7.7,2.2,15.2,7.4,20.9c5.2,5.8,12.3,9.2,20,9.6c9.5,0.5,18.7-3.7,24.6-11.3c2-2.6,5.1-4.1,8.4-4.1
			C156.7,466.9,156.9,466.9,157.1,466.9z"/>
		<g>
			<path class="st12" d="M154.8,336.2L139,415.6c-0.8,5.5-5.8,9.4-11.4,8.9l-0.3,0c-0.2,0-0.5,0-0.7-0.1c-9-0.5-17.6,3.2-23.6,10.1
				c-3.3,3.8-5.5,8.4-6.4,13.3c-1.7,9.1,0.9,18.1,6.9,24.9c5.2,5.8,12.3,9.2,20,9.6c9.5,0.5,18.7-3.7,24.6-11.3
				c2-2.6,5.1-4.1,8.4-4.1c0.2,0,0.4,0,0.6,0c3.5,0.2,6.7,2.2,8.6,5.2c5,8.1,13.6,13.2,23.1,13.7c16,0.9,29.6-11.5,30.5-27.4
				c0.4-7.7-2.2-15.2-7.4-20.9c-5.1-5.7-12.2-9.1-19.9-9.6c-0.1,0-0.3,0-0.4,0c-5.5-0.3-9.9-4.8-10-10.3l-7.8-81.4h0
				c10,6,16.8,16.2,18.4,27.8l10.3,44.2c11.1,2.8,20.9,9.2,28,18.7c6,8,9.4,17.6,9.8,27.6c1.3,29.1-22,52.5-50.1,52.5
				c-0.9,0-1.8,0-2.7-0.1c-12.1-0.6-23.4-5.6-32-13.8c-9.4,7.2-21.1,11-33.2,10.4c-14.8-0.8-28.2-7.9-37.3-19.8
				c-6.3-8.2-9.9-18.3-10.1-28.7c-0.4-15,5.6-29,16.6-38.8c7.9-7.1,17.5-11.4,27.8-12.5l17.4-48
				C139.5,346.7,146.2,339.5,154.8,336.2L154.8,336.2z M192.2,417.3L192.2,417.3L192.2,417.3z"/>
		</g>
	</g>
</g>
<g id="wETH">
	<g>
		<g>
			<g>
				<g>
					<path class="st3" d="M116,252.2c79.8,59,68.8-15.4,140.5,58.1l14.3-52.2c-62.1-62.8-69.1-18.9-113.3-39.7L116,252.2z"/>
				</g>
			</g>
			<path class="st13" d="M119.8,235.3c81.3,59.9,68-17.5,142.9,60.8"/>
			<path class="st13" d="M134.9,222.8c70.6,47.6,62.7-17.8,130.1,50.3"/>
			<g>
				<path class="st14" d="M116,252.2c79.8,59,68.8-15.4,140.5,58.1l14.3-52.2c-62.1-62.8-69.1-18.9-113.3-39.7L116,252.2z"/>
			</g>
		</g>
		<g>
			<g>
				<g>
					<path class="st3" d="M412,247.1c-4.5,0.9-9.5,2.5-15,5.1c-79.8,59-68.8-15.4-140.5,58.1l-14.3-52.2
						c62.1-62.8,69.1-18.9,113.3-39.7"/>
				</g>
			</g>
			<path class="st13" d="M393.2,235.3c-79.8,58.7-68.5-14.6-138.7,56.4"/>
			<path class="st13" d="M375.4,224.5c-67.8,44.2-60.9-18.6-127.4,48.5"/>
			<g>
				<path class="st14" d="M397,252.2c-79.8,59-68.8-15.4-140.5,58.1l-14.3-52.2c62.1-62.8,69.1-18.9,113.3-39.7"/>
			</g>
		</g>
		<g>
			<g>
				<g>
					<path class="st3" d="M359.5,268c-75.5-45.9-34.3-62.8-64.7-101.1c-75.8-64-0.9-70.5-88.9-123.3l47.5-26
						c75.5,45.9,34.3,62.8,64.7,101.1c75.8,64,0.9,70.5,88.9,123.3L359.5,268z"/>
				</g>
			</g>
			<g>
				<path class="st13" d="M258.7,36.1c51.5,39.8,18.5,53.1,46.8,89.5c77,65.3-1.3,70.3,92.1,125"/>
				<path class="st13" d="M236.7,48.7c51,39.6,18.2,52.9,46.4,89.2c75.9,64.4,5.1,70.6,92.3,123.2"/>
			</g>
			<g>
				<g>
					<path class="st4" d="M272.2,30.2c49.3,36.8,18.4,54,45.9,88.5c75.8,64,0.9,70.5,88.9,123.3l-47.5,26
						c-75.5-45.9-34.3-62.8-64.7-101.1c-69.4-58.6-12.5-69-69.9-110.8L272.2,30.2 M272.2,20.2c-1.6,0-3.3,0.4-4.8,1.2l-47.3,25.9
						c-3,1.6-5,4.7-5.2,8.1s1.3,6.7,4.1,8.7c23.8,17.4,24.8,26.9,26.2,40.1c1.7,16.4,3.8,36.8,42.3,69.7
						c9.2,11.9,10.2,20.8,11.3,31.2c1,9.5,2.2,20.4,10.1,32.5c8.3,12.8,22.7,25.2,45.4,39c1.6,1,3.4,1.5,5.2,1.5
						c1.7,0,3.3-0.4,4.8-1.2l47.5-26c3.1-1.7,5.1-5,5.2-8.6c0.1-3.6-1.8-6.9-4.9-8.8c-19.5-11.7-31.9-21.7-38.1-30.8
						c-4.9-7.2-5.5-13.1-6.4-21.3c-1.7-16.4-3.8-36.8-42.3-69.7C316.1,99.9,315.2,91,314,80.6c-1.8-16.1-3.8-34.4-35.9-58.4
						C276.4,20.9,274.3,20.2,272.2,20.2L272.2,20.2z"/>
				</g>
			</g>
		</g>
		<g>
			<g>
				<g>
					<path class="st3" d="M147.5,264.9c75.5-45.9,34.3-62.8,64.7-101.1c75.8-64,0.9-70.5,88.9-123.3l-47.5-26
						c-75.5,45.9-34.3,62.8-64.7,101.1c-75.8,64-0.9,70.5-88.9,123.3L147.5,264.9z"/>
				</g>
			</g>
			<g>
				<path class="st13" d="M268.4,18.9c-79.6,51.3-35.6,63.3-66.9,103.6c-77,65.3,1.3,70.3-92.1,125"/>
				<path class="st13" d="M290.8,31.2c-79.6,51.3-35.6,63.3-66.9,103.6c-77,65.3,1.3,70.3-92.1,125"/>
			</g>
			<g>
				<g>
					<path class="st4" d="M253.6,14.5l47.5,26c-88.1,52.8-13.1,59.3-88.9,123.3c-30.4,38.3,10.7,55.2-64.7,101.1L100,239
						c88.1-52.8,13.1-59.3,88.9-123.3C219.3,77.4,178.2,60.4,253.6,14.5 M253.6,4.5c-1.8,0-3.6,0.5-5.2,1.5
						c-22.7,13.8-37.1,26.2-45.4,39c-7.9,12.2-9,23-10.1,32.5c-1.1,10.3-2.1,19.3-11.3,31.2c-38.6,32.8-40.6,53.2-42.3,69.7
						c-0.8,8.1-1.4,14-6.4,21.3c-6.2,9-18.6,19.1-38.1,30.8c-3.1,1.8-4.9,5.2-4.9,8.8c0.1,3.6,2.1,6.9,5.2,8.6l47.5,26
						c1.5,0.8,3.2,1.2,4.8,1.2c1.8,0,3.6-0.5,5.2-1.5c22.7-13.8,37.1-26.2,45.4-39c7.9-12.2,9-23,10.1-32.5
						c1.1-10.3,2.1-19.3,11.3-31.2c38.6-32.8,40.6-53.2,42.3-69.7c0.8-8.1,1.4-14,6.4-21.3c6.2-9,18.6-19.1,38.1-30.8
						c3.1-1.8,4.9-5.2,4.9-8.8c-0.1-3.6-2.1-6.9-5.2-8.6l-47.5-26C256.9,4.9,255.3,4.5,253.6,4.5L253.6,4.5z"/>
				</g>
			</g>
		</g>
		<g>
			<g>
				<path class="st3" d="M124.8,334.4c4,2.4,8.1,5.6,12.4,9.9c55.2,82.4,70,8.7,112.7,102.1l31.1-44.3
					c-37.2-80.1-58.6-41.1-93.3-75.6"/>
			</g>
		</g>
		<path class="st13" d="M132.2,322.2c4.1,2.4,8.5,5.7,13.2,10.3c56.4,83.8,70,6.5,114,105.4"/>
		<path class="st13" d="M157.2,315.6c56.4,83.8,70,6.5,114,105.4"/>
		<g>
			<path class="st14" d="M137.2,344.3c55.2,82.4,70,8.7,112.7,102.1l31.1-44.3c-37.2-80.1-58.6-41.1-93.3-75.6"/>
		</g>
		<g>
			<g>
				<path class="st3" d="M388.9,333.4c-4,2.4-8.1,5.6-12.4,9.9c-55.2,82.4-70,8.7-112.7,102.1L232.7,401
					c37.2-80.1,58.6-41.1,93.3-75.6"/>
			</g>
		</g>
		<path class="st13" d="M381.5,321.2c-4.1,2.4-8.5,5.7-13.2,10.3c-56.4,83.8-70,6.5-114,105.4"/>
		<path class="st13" d="M356.4,314.5c-56.4,83.8-70,6.5-114,105.4"/>
		<g>
			<path class="st14" d="M376.4,343.2c-55.2,82.4-70,8.7-112.7,102.1L232.7,401c37.2-80.1,58.6-41.1,93.3-75.6"/>
		</g>
		<g>
			<g>
				<g>
					<path class="st3" d="M363.3,308.6c-75.5,34.6-34.3,47.4-64.7,76.3c-75.8,48.3,3.7,51.1-84.3,90.9l42.9,21.7
						c75.5-34.6,34.3-47.4,64.7-76.3c75.8-48.3,0.9-53.2,88.9-93L363.3,308.6z"/>
				</g>
			</g>
			<g>
				<path class="st13" d="M242.4,494.2c79.6-38.7,35.6-47.7,66.9-78.1c77-49.3-1.3-53,92.1-94.3"/>
				<path class="st13" d="M219.9,484.9c79.6-38.7,35.6-47.7,66.9-78.1c77-49.3-1.3-53,92.1-94.3"/>
			</g>
			<g>
				<g>
					<path class="st4" d="M363.3,308.6l47.5,19.6c-88.1,39.8-13.1,44.7-88.9,93c-30.4,28.9,10.7,41.7-64.7,76.3l-37.2-24.4
						c88.1-39.8,2.8-39.9,78.6-88.2C328.9,356,287.8,343.2,363.3,308.6 M363.3,298.6c-1.4,0-2.9,0.3-4.2,0.9
						c-22.7,10.4-37.2,19.8-45.6,29.7c-8.5,9.9-9.8,19-10.9,26.3c-1.1,7.4-1.9,13.3-10.3,21.5c-37.7,24.3-39.8,39.2-38.5,54.9
						c0.4,5.1,0.6,7.1-2.2,10.5c-4.8,5.9-16.9,13.2-35.7,21.7c-3.3,1.5-5.6,4.7-5.9,8.3c-0.3,3.6,1.4,7.2,4.5,9.2l37.2,24.4
						c1.7,1.1,3.6,1.6,5.5,1.6c1.4,0,2.8-0.3,4.2-0.9c22.7-10.4,37.2-19.8,45.6-29.7c8.5-9.9,9.8-19,10.9-26.3
						c1.1-7.4,1.9-13.3,10.3-21.5c17.1-11,28.2-20.7,34.9-30.5c6.5-9.6,7.6-17.6,8.5-24.1c1.4-10.4,2.5-18.7,43.5-37.2
						c3.6-1.6,6-5.3,5.9-9.3c-0.1-4-2.5-7.6-6.2-9.1l-47.5-19.6C365.9,298.8,364.6,298.6,363.3,298.6L363.3,298.6z"/>
				</g>
			</g>
		</g>
		<g>
			<g>
				<g>
					<path class="st3" d="M148.7,308.6c75.5,34.6,34.3,47.4,64.7,76.3c75.8,48.3,0.9,53.2,88.9,93l-47.5,19.6
						c-75.5-34.6-34.3-47.4-64.7-76.3c-75.8-48.3-0.9-53.2-88.9-93L148.7,308.6z"/>
				</g>
			</g>
			<g>
				<path class="st13" d="M269.6,494.2c-79.6-38.7-35.6-47.7-66.9-78.1c-77-49.3,1.3-53-92.1-94.3"/>
				<path class="st13" d="M292.1,484.9c-79.6-38.7-35.6-47.7-66.9-78.1c-77-49.3,1.3-53-92.1-94.3"/>
			</g>
			<g>
				<g>
					<path class="st4" d="M148.7,308.6c75.5,34.6,34.3,47.4,64.7,76.3c75.8,48.3,0.9,53.2,88.9,93l-47.5,19.6
						c-75.5-34.6-34.3-47.4-64.7-76.3c-75.8-48.3-0.9-53.2-88.9-93L148.7,308.6 M148.7,298.6c-1.3,0-2.6,0.3-3.8,0.8l-47.5,19.6
						c-3.7,1.5-6.1,5.1-6.2,9.1c-0.1,4,2.2,7.6,5.9,9.3c40.9,18.5,42.1,26.7,43.5,37.2c0.9,6.4,2,14.5,8.5,24.1
						c6.7,9.8,17.7,19.6,34.9,30.5c8.4,8.2,9.2,14.1,10.3,21.5c1.1,7.3,2.4,16.5,10.9,26.3c8.4,9.8,22.9,19.2,45.6,29.7
						c1.3,0.6,2.8,0.9,4.2,0.9c1.3,0,2.6-0.3,3.8-0.8l47.5-19.6c3.7-1.5,6.1-5.1,6.2-9.1c0.1-4-2.2-7.6-5.9-9.3
						c-40.9-18.5-42.1-26.7-43.5-37.2c-0.9-6.4-2-14.5-8.5-24.1c-6.7-9.8-17.7-19.6-34.9-30.5c-8.4-8.2-9.2-14.1-10.3-21.5
						c-1.1-7.3-2.4-16.5-10.9-26.3c-8.4-9.8-22.9-19.2-45.6-29.7C151.6,298.9,150.2,298.6,148.7,298.6L148.7,298.6z"/>
				</g>
			</g>
		</g>
	</g>
</g>
<g id="SNX" class="st0">
	<g class="st1">
		<g>
			<path class="st15" d="M258.9,490.9c-64,0-123.7-22.6-167.9-63.6c-45.1-41.8-70-99-70-161.2c0-62.6,24.8-121.4,69.8-165.7
				C135.7,56.3,195.4,32,258.9,32c63.5,0,123.3,24.3,168.2,68.5c45,44.2,69.8,103.1,69.8,165.7c0,62.1-24.9,119.4-70,161.2
				C382.6,468.3,322.9,490.9,258.9,490.9z"/>
			<path class="st16" d="M258.9,42.8c125.4,0,227.1,100,227.1,223.3S384.3,480.1,258.9,480.1S31.8,389.5,31.8,266.2
				S133.5,42.8,258.9,42.8 M258.9,21.1c-33.5,0-66.1,6.5-96.7,19.2c-29.6,12.3-56.2,30-79.1,52.4c-22.9,22.5-40.8,48.7-53.4,77.9
				c-13,30.3-19.6,62.4-19.6,95.5c0,65.2,26.1,125.2,73.5,169.1c46.3,42.9,108.6,66.5,175.3,66.5s129-23.6,175.3-66.5
				c47.4-43.9,73.5-103.9,73.5-169.1c0-33.1-6.6-65.2-19.6-95.5c-12.6-29.2-30.5-55.4-53.4-77.9c-22.8-22.5-49.4-40.1-79.1-52.4
				C325,27.6,292.4,21.1,258.9,21.1L258.9,21.1z"/>
		</g>
		<path class="st17" d="M442.3,232.8c0,10.2-2.6,19.8-4,29.7c-1.4,10.1,2.5,21.3-0.3,30.8c-2.9,9.7-7.9,17-12,26.1
			c-4.2,9.2-8,21-13.4,29.5c-5.5,8.5-16.5,12.8-23.1,20.4c-6.6,7.6-9.4,19.1-17,25.7c-7.6,6.6-19.4,7.7-27.9,13.2
			c-8.4,5.4-14.3,15.7-23.5,19.9c-9.1,4.2-20.7,1.9-30.5,4.7c-9.6,2.8-18.1,11-28.2,12.5c-9.8,1.4-20.3-4.1-30.6-4.1
			c-10.2,0-20.7,5.5-30.6,4.1c-10.1-1.4-18.6-9.6-28.2-12.5c-9.7-2.9-21.4-0.6-30.5-4.7c-9.2-4.2-15.1-11.2-23.5-16.7
			c-8.5-5.5-20.3-9.8-27.9-16.4c-7.6-6.6-12.5-13.8-19.1-21.4c-6.6-7.6-15.4-16.3-20.9-24.8c-5.4-8.4-4.8-20.3-9.1-29.5
			c-4.2-9.1-13.5-16.4-16.4-26.1c-2.8-9.6,1.1-20.7-0.3-30.8c-1.4-9.8-8.3-19.5-8.3-29.7c0-10.2,6.9-19.8,8.3-29.7
			c1.4-10.1,0.8-23.4,3.6-33c2.9-9.7,9-14.9,13.1-24c4.2-9.2,3.6-21,9.1-29.5c5.5-8.5,16.5-12.8,23.1-20.4c6.6-7.6,9.4-19.1,17-25.7
			c7.6-6.6,19.4-7.7,27.9-13.2c8.4-5.4,14.3-10.3,23.5-14.5c9.1-4.2,20.7-7.3,30.5-10.2c9.6-2.8,18.1-11,28.2-12.5
			c9.8-1.4,20.3,4.1,30.6,4.1c10.2,0,20.7-1.1,30.6,0.3c10.1,1.4,18.6,5.3,28.2,8.1c9.7,2.9,21.4,0.6,30.5,4.7
			c9.2,4.2,18.3,13.4,26.8,18.9c8.5,5.5,17,7.6,24.6,14.2c7.6,6.6,7.1,13.8,13.7,21.4c6.6,7.6,20.9,16.3,26.3,24.8
			c5.4,8.4,4.8,20.3,9.1,29.5c4.2,9.1,10.3,16.4,13.1,26.1c2.8,9.6,2.1,20.7,3.6,30.8C439.8,212.9,442.3,222.5,442.3,232.8z"/>
		<g>
			<polyline class="st18" points="181.5,167.7 163.9,147.1 144.6,147.5 125.4,148 106.2,148 			"/>
		</g>
		<g>
			<polyline class="st19" points="354,310.3 326.9,309.5 299.6,310.3 286.1,293.3 272,277 258,260.7 243.6,244.6 229.4,228.3 			"/>
		</g>
		<g>
			<polyline class="st19" points="356.8,141.4 337.6,139.9 318.5,139 299.9,141.9 286.2,158.1 273.7,175.9 258.1,191.2 243.9,207.6 
				232.9,226.5 218.1,242.4 203.7,258.7 192,277.1 176.2,292.2 163.8,310 144.6,310.8 125.5,310.5 106.3,307.9 			"/>
		</g>
		<g>
			<polyline class="st20" points="284,147.3 270.4,164.7 256.2,181.6 			"/>
		</g>
		<g>
			<polyline class="st20" points="356.8,130.9 336.8,131.4 316.8,130.7 			"/>
		</g>
		<g>
			<polyline class="st20" points="181.6,158 163.8,137.6 144.6,137.5 125.4,137.7 106.2,137.8 			"/>
		</g>
		<g>
			<line class="st20" x1="282" y1="275.1" x2="264.6" y2="254.6"/>
		</g>
		<g>
			<line class="st20" x1="344.7" y1="301" x2="323" y2="301.3"/>
		</g>
	</g>
</g>
<g id="bZx" class="st0">
	<g class="st1">
		<g>
			<path class="st3" d="M105.4,486.2c-43.9,0-79.6-35.7-79.6-79.6V105.4c0-43.9,35.7-79.6,79.6-79.6h301.2
				c43.9,0,79.6,35.7,79.6,79.6v301.2c0,43.9-35.7,79.6-79.6,79.6H105.4z"/>
			<path class="st21" d="M406.6,46.6c32.4,0,58.8,26.4,58.8,58.8v301.2c0,32.4-26.4,58.8-58.8,58.8H105.4
				c-32.4,0-58.8-26.4-58.8-58.8V105.4c0-32.4,26.4-58.8,58.8-58.8H406.6 M406.6,5H105.4C50,5,5,50,5,105.4v301.2
				C5,462,50,507,105.4,507h301.2C462,507,507,462,507,406.6V105.4C507,50,462,5,406.6,5L406.6,5z"/>
		</g>
		<line class="st22" x1="185.2" y1="180.6" x2="185.2" y2="19.6"/>
		<line class="st22" x1="240.3" y1="187.9" x2="17.8" y2="187.9"/>
		<g>
			<g>
				<path class="st23" d="M480.4,113.1h-14.4c-23.8,0-44,50.5-54.2,82.1c-4.7,14.6,1.4,30.4,14.7,38.1
					c17.6,10.1,35.3,17.2,59.1,12.9"/>
			</g>
		</g>
		<path class="st23" d="M355.6,484.1c13.5-81.1-126.8-73.8-112.2-153.8"/>
		<g>
			<path class="st6" d="M224,330.7c-21.4,0-38.8-17.4-38.8-38.8V186.8h105.3c21.4,0,38.8,17.4,38.8,38.8v66.3
				c0,21.4-17.4,38.8-38.8,38.8H224z"/>
			<path class="st4" d="M290.5,207.6c10.1,0,18,7.9,18,18v66.3c0,10.1-7.9,18-18,18H224c-10.1,0-18-7.9-18-18v-84.3H290.5
				 M290.5,166h-84.5h-41.6v41.6v84.3c0,16,6.2,30.9,17.4,42.2c11.2,11.2,26.2,17.4,42.2,17.4h66.5c16,0,31-6.2,42.2-17.4
				c11.2-11.2,17.4-26.2,17.4-42.2v-66.3c0-16-6.2-30.9-17.4-42.2C321.5,172.2,306.5,166,290.5,166L290.5,166z"/>
		</g>
		<g>
			<path class="st21" d="M406.6,46.6c32.4,0,58.8,26.4,58.8,58.8v301.2c0,32.4-26.4,58.8-58.8,58.8H105.4
				c-32.4,0-58.8-26.4-58.8-58.8V105.4c0-32.4,26.4-58.8,58.8-58.8H406.6 M406.6,5H105.4C50,5,5,50,5,105.4v301.2
				C5,462,50,507,105.4,507h301.2C462,507,507,462,507,406.6V105.4C507,50,462,5,406.6,5L406.6,5z"/>
		</g>
	</g>
</g>
<g id="AAVE" class="st0">
	<g class="st1">
		<path id="path8_2_" class="st24" d="M88.8,140.6L88.8,140.6c-10-4.5-20.9-11.6-28.8-23.3c-5.9-8.7-7.9-16.7-11.7-34.4
			c-3.4-15.8-7.5-35.8-11.7-59.2c-0.6-3.3,1.7-6.5,5-7.1c0,0,0,0,0,0c0.4-0.1,0.8-0.1,1.2-0.1c18,0.6,35.8,4.2,52.7,10.6
			c25.6,9.7,33.4,15.3,43.4,24.6"/>
		<path id="path12" class="st25" d="M90.6,142.9c0,0,7.6-21,9.5-38c2.9-25.5-2.3-47.4-31.9-60.5c2.7,4.3,12.9,7.9,15.3,16.7
			c3.9,14.1-8.4,19.4-5,32.9S88,109,91.6,124C93.4,131.6,90.6,142.9,90.6,142.9z"/>
		<path id="path8_1_" class="st24" d="M373.2,51.7c10-9.2,17.8-14.9,43.4-24.6c16.9-6.4,34.7-10,52.7-10.6c0.4,0,0.8,0,1.2,0.1
			c0,0,0,0,0,0c3.3,0.6,5.6,3.7,5,7.1c-4.2,23.4-8.3,43.3-11.7,59.2c-3.9,17.8-5.8,25.7-11.7,34.4c-7.9,11.6-18.8,18.8-28.8,23.3
			l0,0"/>
		<path id="path12_1_" class="st25" d="M420.4,124c3.6-15,9.6-16.3,13-29.9s-8.9-18.8-5-32.9c2.4-8.8,12.6-12.4,15.3-16.7
			c-29.6,13.1-34.7,35-31.9,60.5c1.9,17,9.5,38,9.5,38S418.6,131.6,420.4,124z"/>
		<g id="Group_13465_2_">
			<g id="Path_7142_3_">
				<path class="st21" d="M396,497.3c-15.2,0-27.5-12.4-27.5-27.5v-50.9c0-4.1-3.4-7.5-7.5-7.5c-4.1,0-7.5,3.4-7.5,7.5V443
					c0,15.2-12.4,27.5-27.5,27.5c-15.2,0-27.5-12.4-27.5-27.5v-24c-0.1-4-3.3-7.2-7.3-7.3l-0.2,0c-4,0-7.4,3.3-7.5,7.3v6.5
					c0,15.2-12.4,27.5-27.5,27.5c-15.2,0-27.6-12.4-27.6-27.5v-6.6c0-4.1-3.4-7.5-7.5-7.5c-4.1,0-7.5,3.4-7.5,7.5c0,0,0,24.3,0,24.4
					c-0.3,14.8-12.2,26.6-26.9,26.9c-0.2,0-0.4,0-0.6,0c-14.9,0-27.2-12.1-27.5-27c0-0.1,0-24.4,0-24.4c0-4.1-3.4-7.5-7.5-7.5
					s-7.5,3.4-7.5,7.5v50.9c0,15.2-12.4,27.5-27.5,27.5c-15.2,0-27.5-12.4-27.5-27.5V182.3c0-0.4,0-0.8,0-1.2c0,0,0-0.2,0-0.2
					c0.8-43.6,18.3-84.6,49.1-115.4C168,34.7,209,17.2,252.6,16.4c1.1,0,2.2,0,3.3,0c44.1,0,85.8,17,117.3,47.9
					c31.5,30.9,49.4,72.2,50.3,116.3l0,0.1c0,0.1,0,0.3,0,0.4c0,0.4,0.1,0.8,0.1,1.2v287.5C423.6,484.9,411.2,497.3,396,497.3z"/>
				<path class="st26" d="M255.9,26.4c85.7,0,155.9,68.6,157.6,154.7c0,0.4,0.1,0.8,0.1,1.2v287.5c0,9.7-7.8,17.5-17.5,17.5
					s-17.5-7.8-17.5-17.5v-50.9c0-9.7-7.8-17.5-17.5-17.5c-9.7,0-17.5,7.8-17.5,17.5V443c0,9.7-7.8,17.5-17.5,17.5
					c-9.7,0-17.5-7.8-17.5-17.5v-24.2c-0.2-9.4-7.8-16.9-17.1-17.1c-0.1,0-0.3,0-0.4,0c-9.5,0-17.3,7.6-17.5,17.2v6.6
					c0,9.7-7.8,17.5-17.5,17.5c0,0,0,0,0,0c-9.7,0-17.5-7.8-17.5-17.5v-6.6c0-9.7-7.8-17.5-17.5-17.5c-9.7,0-17.5,7.8-17.5,17.5V443
					c-0.2,9.4-7.8,16.9-17.1,17.1c-0.1,0-0.3,0-0.4,0c-9.5,0-17.3-7.6-17.5-17.2v-24.2c0-9.7-7.8-17.5-17.5-17.5
					c-9.7,0-17.5,7.8-17.5,17.5v50.9c0,9.7-7.8,17.5-17.5,17.5s-17.5-7.8-17.5-17.5v-285v-2.4c0-0.4,0-0.8,0-1.2
					c1.6-84.7,69.9-153,154.6-154.6C253.8,26.4,254.8,26.4,255.9,26.4 M255.9,6.4c-1.2,0-2.3,0-3.5,0c-46.2,0.9-89.6,19.4-122.3,52
					c-32.6,32.6-51.1,76-52,122.1c0,0.4-0.1,1-0.1,1.7v2.4v285c0,20.7,16.9,37.6,37.6,37.6s37.6-16.9,37.6-37.6v-8.3
					c1.7,2.9,3.8,5.6,6.3,8c7.1,6.9,16.4,10.7,26.3,10.7c0.3,0,0.6,0,0.8,0c19.9-0.4,35.9-16.2,36.7-36
					c6.5,11.2,18.7,18.8,32.6,18.8c13.9,0,26.1-7.6,32.6-18.8c0.6,20.2,17.2,36.4,37.5,36.4c13.9,0,26-7.6,32.5-18.8v8
					c0,20.7,16.9,37.6,37.6,37.6s37.6-16.9,37.6-37.6V182.3c0-0.7,0-1.5-0.1-2.2c-1.1-46.6-20-90.2-53.3-122.9
					C346.8,24.4,302.6,6.4,255.9,6.4L255.9,6.4z"/>
			</g>
		</g>
		<line id="line22" class="st27" x1="128.8" y1="217.2" x2="150.9" y2="217.2"/>
		<line id="line24" class="st27" x1="360.7" y1="217.2" x2="382.9" y2="217.2"/>
		<circle id="circle26" class="st28" cx="350.8" cy="171.4" r="16.2"/>
		<circle id="circle28" class="st28" cx="160.1" cy="171.4" r="16.2"/>
		<path id="path30" class="st29" d="M255.4,203.9c-43.1,0-78-2.9-78,22.9s34.9,54.2,78,54.2s78-28.4,78-54.2
			S298.5,203.9,255.4,203.9z"/>
		<path id="rect32" class="st28" d="M286,221.3h0.2c2.7,0,4.9,2.2,4.9,4.9v23.6c0,2.7-2.2,4.9-4.9,4.9H286c-2.7,0-4.9-2.2-4.9-4.9
			v-23.6C281.1,223.5,283.3,221.3,286,221.3z"/>
		<path id="rect34" class="st28" d="M224.6,221.3h0.2c2.7,0,4.9,2.2,4.9,4.9v23.6c0,2.7-2.2,4.9-4.9,4.9h-0.2
			c-2.7,0-4.9-2.2-4.9-4.9v-23.6C219.7,223.5,221.9,221.3,224.6,221.3z"/>
	</g>
</g>
<g id="LINK" class="st0">
	<g class="st1">
		<g>
			<path class="st30" d="M494.8,256.1v77c0,23.7-13.7,36.3-30.5,36.3s-30.5-12.6-30.5-36.3v-77v-77c0-23.7,13.7-36.3,30.5-36.3
				s30.5,12.6,30.5,36.3V256.1z"/>
			<path class="st31" d="M451.6,193.2c0-17.8-1.6-28.2,9.3-32.8"/>
			<line class="st31" x1="451.6" y1="242" x2="451.6" y2="230"/>
			<line class="st32" x1="447.8" y1="261" x2="480.9" y2="251.1"/>
			<line class="st32" x1="447.8" y1="214" x2="480.9" y2="204.1"/>
			<line class="st32" x1="447.8" y1="308" x2="480.9" y2="298.2"/>
		</g>
		<g>
			<path class="st30" d="M169,107.9l66.7-38.5c20.5-11.9,24.6-30,16.2-44.6c-8.4-14.6-26.2-20.1-46.7-8.3L138.5,55L71.8,93.5
				c-20.5,11.9-24.6,30-16.2,44.6c8.4,14.6,26.2,20.1,46.7,8.3L169,107.9z"/>
			<path class="st31" d="M93,101.9c-15.4,8.9-25.2,12.7-23.8,24.5"/>
			<line class="st31" x1="135.3" y1="77.5" x2="124.9" y2="83.5"/>
			<line class="st32" x1="149.8" y1="64.7" x2="157.8" y2="98.3"/>
			<line class="st32" x1="109" y1="88.2" x2="117" y2="121.8"/>
			<line class="st32" x1="190.5" y1="41.1" x2="198.5" y2="74.7"/>
		</g>
		<g>
			<path class="st30" d="M373.6,457L307,495.5c-20.5,11.9-38.3,6.3-46.7-8.3c-8.4-14.6-4.3-32.7,16.2-44.6l66.7-38.5l66.7-38.5
				c20.5-11.9,38.3-6.3,46.7,8.3s4.3,32.7-16.2,44.6L373.6,457z"/>
			<path class="st31" d="M406.5,388.1c15.4-8.9,23.6-15.5,33.1-8.3"/>
			<line class="st31" x1="364.2" y1="412.5" x2="374.6" y2="406.5"/>
			<line class="st32" x1="345.8" y1="418.7" x2="370.9" y2="442.4"/>
			<line class="st32" x1="386.6" y1="395.2" x2="411.7" y2="418.9"/>
			<line class="st32" x1="305.1" y1="442.2" x2="330.2" y2="465.9"/>
		</g>
		<g>
			<path class="st30" d="M373.5,55l66.7,38.5c20.5,11.9,24.6,30,16.2,44.6c-8.4,14.6-26.2,20.1-46.7,8.3L343,107.9l-66.7-38.5
				c-20.5-11.9-24.6-30-16.2-44.6c8.4-14.6,26.2-20.1,46.7-8.3L373.5,55z"/>
			<path class="st31" d="M297.4,61c-15.4-8.9-25.2-12.7-23.8-24.5"/>
			<line class="st31" x1="339.7" y1="85.4" x2="329.3" y2="79.4"/>
			<line class="st32" x1="354.2" y1="98.3" x2="362.2" y2="64.7"/>
			<line class="st32" x1="313.5" y1="74.7" x2="321.5" y2="41.1"/>
			<line class="st32" x1="395" y1="121.8" x2="403" y2="88.2"/>
		</g>
		<g>
			<path class="st30" d="M138.6,457L72,418.5c-20.5-11.9-24.6-30-16.2-44.6s26.2-20.1,46.7-8.3l66.7,38.5l66.7,38.5
				c20.5,11.9,24.6,30,16.2,44.6c-8.4,14.6-26.2,20.1-46.7,8.3L138.6,457z"/>
			<path class="st31" d="M214.7,451c15.4,8.9,25.2,12.7,23.8,24.5"/>
			<line class="st31" x1="172.4" y1="426.6" x2="182.8" y2="432.6"/>
			<line class="st32" x1="157.9" y1="413.7" x2="149.9" y2="447.3"/>
			<line class="st32" x1="198.6" y1="437.3" x2="190.6" y2="470.9"/>
			<line class="st32" x1="117.2" y1="390.2" x2="109.2" y2="423.8"/>
		</g>
		<g>
			<path class="st30" d="M78.2,256.1v77c0,23.7-13.7,36.3-30.5,36.3s-30.5-12.6-30.5-36.3v-77v-77c0-23.7,13.7-36.3,30.5-36.3
				s30.5,12.6,30.5,36.3V256.1z"/>
			<path class="st31" d="M35,193.2c0-17.8-1.6-28.2,9.3-32.8"/>
			<line class="st31" x1="35" y1="242" x2="35" y2="230"/>
			<line class="st32" x1="31.1" y1="261" x2="64.2" y2="251.1"/>
			<line class="st32" x1="31.1" y1="214" x2="64.2" y2="204.1"/>
			<line class="st32" x1="31.1" y1="308" x2="64.2" y2="298.2"/>
		</g>
	</g>
</g>
</svg>
