<svg xmlns="http://www.w3.org/2000/svg" viewBox="0 0 503.66 472.09"><defs><style>.cls-SleepyPigletsvg-1,.cls-SleepyPigletsvg-2,.cls-SleepyPigletsvg-9{fill:#ffbbb6;}.cls-SleepyPigletsvg-2,.cls-SleepyPigletsvg-3,.cls-SleepyPigletsvg-6,.cls-SleepyPigletsvg-9{stroke:#ed8385;}.cls-SleepyPigletsvg-10,.cls-SleepyPigletsvg-2,.cls-SleepyPigletsvg-5,.cls-SleepyPigletsvg-6,.cls-SleepyPigletsvg-7{stroke-linecap:round;}.cls-SleepyPigletsvg-10,.cls-SleepyPigletsvg-2,.cls-SleepyPigletsvg-9{stroke-linejoin:round;}.cls-SleepyPigletsvg-2,.cls-SleepyPigletsvg-3,.cls-SleepyPigletsvg-5,.cls-SleepyPigletsvg-6,.cls-SleepyPigletsvg-7,.cls-SleepyPigletsvg-9{stroke-width:20px;}.cls-SleepyPigletsvg-3{fill:#ff9cd2;}.cls-SleepyPigletsvg-3,.cls-SleepyPigletsvg-5,.cls-SleepyPigletsvg-6,.cls-SleepyPigletsvg-7{stroke-miterlimit:10;}.cls-SleepyPigletsvg-4{fill:#1a1a1a;}.cls-SleepyPigletsvg-10,.cls-SleepyPigletsvg-5,.cls-SleepyPigletsvg-6,.cls-SleepyPigletsvg-7{fill:none;}.cls-SleepyPigletsvg-5{stroke:#fff;}.cls-SleepyPigletsvg-7{stroke:#1a1a1a;}.cls-SleepyPigletsvg-8{fill:#4672c9;}.cls-SleepyPigletsvg-10{stroke:#4672c9;stroke-width:14px;}</style></defs><title>Asset 1</title><g id="Layer_2" data-name="Layer 2"><g id="Layer_1-2" data-name="Layer 1"><g id="Layer_2-2" data-name="Layer 2"><g id="svg47"><g id="Layer_2-2-2" data-name="Layer 2-2"><g id="Layer_7" data-name="Layer 7"><rect id="rect8" class="cls-SleepyPigletsvg-1" x="50.4" y="59.51" width="399.38" height="101.19"/></g><g id="Layer_4" data-name="Layer 4"><path id="path11" class="cls-SleepyPigletsvg-2" d="M122,65c36.59-25.4,75.09-34.64,129.62-34.64a327.26,327.26,0,0,1,50.81,3.51,190.83,190.83,0,0,1,47.69,13.61A183.87,183.87,0,0,1,381.28,65"/><path id="path13" class="cls-SleepyPigletsvg-2" d="M458.7,152.15h0c17.36,32,26.81,65.47,28,94.79.5,12.42,2.57,87.48-71.74,150-54.34,45.75-85,43.15-163.35,43.48-78.4-.33-109,2.27-163.36-43.48C13.94,334.4,16,259.34,16.52,246.94c1.19-29.32,10.64-62.8,28-94.79h0"/><path id="path15" class="cls-SleepyPigletsvg-3" d="M251.61,255.91c-58.44,0-105.81-4-105.81,31.08s47.37,73.53,105.81,73.53,105.8-38.45,105.8-73.53S310,255.91,251.61,255.91Z"/><rect id="rect17" class="cls-SleepyPigletsvg-4" x="286.47" y="279.5" width="13.63" height="45.28" rx="6.65"/><rect id="rect19" class="cls-SleepyPigletsvg-4" x="203.12" y="279.51" width="13.63" height="45.28" rx="6.65"/><path id="path21" class="cls-SleepyPigletsvg-5" d="M90.41,154.24c-2.42,4.17-5,8.35-7.31,12.93"/><path id="path23" class="cls-SleepyPigletsvg-5" d="M208.55,66.64c-36.9,9.54-70.5,26.81-95.22,55"/><line id="line25" class="cls-SleepyPigletsvg-6" x1="79.92" y1="313.66" x2="109.94" y2="313.66"/><line id="line27" class="cls-SleepyPigletsvg-6" x1="394.4" y1="313.66" x2="424.42" y2="313.66"/><path id="path29" class="cls-SleepyPigletsvg-7" d="M402.8,211.79a21.91,21.91,0,0,1-43.82,0h0"/><path id="path31" class="cls-SleepyPigletsvg-7" d="M144.28,211.79a21.91,21.91,0,1,1-43.82,0"/><circle id="circle33" class="cls-SleepyPigletsvg-4" cx="322.1" cy="395.59" r="11.97"/><path id="path35" class="cls-SleepyPigletsvg-8" d="M384.44,442.24a22.24,22.24,0,0,1-41.8,15.21c-4.2-11.54,3.94-54.2,3.94-54.2S380.28,430.7,384.44,442.24Z"/><path id="path37" class="cls-SleepyPigletsvg-9" d="M381.28,65s11-8,22.21-2c14.71,7.93,17.2,29.6,37.81,80.53,2.51,6.22,5.89,14.27,12.15,15.62,9.48,2,19.44-12.58,22.51-17.08,16-23.47,26.44-69.18,7.65-90.3C456.15,21,381.28,65,381.28,65Z"/><path id="path39" class="cls-SleepyPigletsvg-9" d="M122.37,65s-10.94-8-22.2-2C85.46,70.93,83,92.6,62.36,143.53c-2.52,6.22-5.89,14.27-12.16,15.62-9.48,2-19.43-12.58-22.5-17.08C11.71,118.59,1.28,72.88,20,51.76,47.44,21,122.37,65,122.37,65Z"/><polyline id="polyline41" class="cls-SleepyPigletsvg-10" points="300.76 50.01 344.86 50.01 300.76 94.12 344.86 94.12"/><polyline id="polyline43" class="cls-SleepyPigletsvg-10" points="362.64 7 390.2 7 362.64 34.57 390.2 34.57"/></g></g></g></g></g></g></svg>