<svg xmlns="http://www.w3.org/2000/svg" viewBox="0 0 497.1 472.09"><defs><style>.cls-1,.cls-2,.cls-9{fill:#ffbbb6;}.cls-2,.cls-3,.cls-6,.cls-9{stroke:#ed8385;}.cls-10,.cls-2,.cls-5,.cls-6,.cls-7{stroke-linecap:round;}.cls-10,.cls-2,.cls-9{stroke-linejoin:round;}.cls-10,.cls-2,.cls-7{stroke-width:14px;}.cls-3{fill:#ff9cd2;stroke-width:15.65px;}.cls-3,.cls-5,.cls-6,.cls-7{stroke-miterlimit:10;}.cls-4{fill:#1a1a1a;}.cls-10,.cls-5,.cls-6,.cls-7{fill:none;}.cls-5{stroke:#fff;stroke-width:20.49px;}.cls-6{stroke-width:20px;}.cls-7{stroke:#1a1a1a;}.cls-8{fill:#4672c9;}.cls-9{stroke-width:13.44px;}.cls-10{stroke:#4672c9;}</style></defs><title>Asset 2</title><g id="Layer_2" data-name="Layer 2"><g id="svg47"><g id="Layer_2-2" data-name="Layer 2"><g id="Layer_7" data-name="Layer 7"><rect id="rect8" class="cls-1" x="47.12" y="59.51" width="399.38" height="101.19"/></g><g id="Layer_4" data-name="Layer 4"><path id="path11" class="cls-2" d="M118.71,65C155.3,39.6,193.8,30.36,248.33,30.36a327.26,327.26,0,0,1,50.81,3.51,190.71,190.71,0,0,1,47.69,13.61A183,183,0,0,1,378,65"/><path id="path13" class="cls-2" d="M455.42,152.15h0c17.36,32,26.81,65.47,28,94.79.5,12.42,2.57,87.48-71.74,150-54.34,45.75-85,43.15-163.35,43.48-78.4-.33-109,2.27-163.36-43.48-74.31-62.54-72.24-137.6-71.73-150,1.19-29.32,10.64-62.8,28-94.79h0"/><path id="path15" class="cls-3" d="M248.33,255.91c-58.44,0-105.81-4-105.81,31.08s47.37,73.53,105.81,73.53,105.8-38.45,105.8-73.53S306.76,255.91,248.33,255.91Z"/><rect id="rect17" class="cls-4" x="283.19" y="279.5" width="13.63" height="45.28" rx="6.65"/><rect id="rect19" class="cls-4" x="199.84" y="279.51" width="13.63" height="45.28" rx="6.65"/><path id="path21" class="cls-5" d="M87.13,154.24c-2.42,4.17-5,8.35-7.31,12.93"/><path id="path23" class="cls-5" d="M205.27,66.64c-36.9,9.54-70.5,26.81-95.22,55"/><line id="line25" class="cls-6" x1="76.64" y1="313.66" x2="106.66" y2="313.66"/><line id="line27" class="cls-6" x1="391.12" y1="313.66" x2="421.14" y2="313.66"/><path id="path29" class="cls-7" d="M399.52,211.79a21.91,21.91,0,1,1-43.82,0h0"/><path id="path31" class="cls-7" d="M141,211.79a21.91,21.91,0,0,1-43.82,0"/><circle id="circle33" class="cls-4" cx="318.82" cy="395.59" r="11.97"/><path id="path35" class="cls-8" d="M381.16,442.24a22.24,22.24,0,0,1-41.8,15.21c-4.2-11.54,3.94-54.2,3.94-54.2S377,430.7,381.16,442.24Z"/><path id="path37" class="cls-9" d="M378,65s10.95-8,22.21-2c14.71,7.93,17.2,29.6,37.81,80.53,2.51,6.22,5.89,14.27,12.15,15.62,9.48,2,19.44-12.58,22.51-17.08,16-23.47,26.44-69.18,7.65-90.3C452.87,21,378,65,378,65Z"/><path id="path39" class="cls-9" d="M119.09,65s-10.94-8-22.2-2c-14.71,7.93-17.21,29.6-37.81,80.53-2.52,6.22-5.89,14.27-12.16,15.62-9.48,2-19.43-12.58-22.5-17.08C8.43,118.59-2,72.88,16.76,51.76,44.16,21,119.09,65,119.09,65Z"/><polyline id="polyline41" class="cls-10" points="297.48 50.01 341.58 50.01 297.48 94.12 341.58 94.12"/><polyline id="polyline43" class="cls-10" points="359.36 7 386.92 7 359.36 34.57 386.92 34.57"/></g></g></g></g></svg>