<svg xmlns="http://www.w3.org/2000/svg" viewBox="0 0 496.85 460"><defs><style>.cls-StokedPigletsvg-1{fill:#ffbbb6;}.cls-StokedPigletsvg-1,.cls-StokedPigletsvg-2,.cls-StokedPigletsvg-3,.cls-StokedPigletsvg-5,.cls-StokedPigletsvg-7{stroke:#ed8385;}.cls-StokedPigletsvg-1,.cls-StokedPigletsvg-2,.cls-StokedPigletsvg-3{stroke-linejoin:round;}.cls-StokedPigletsvg-1,.cls-StokedPigletsvg-3,.cls-StokedPigletsvg-4,.cls-StokedPigletsvg-5,.cls-StokedPigletsvg-6,.cls-StokedPigletsvg-7{stroke-width:20px;}.cls-StokedPigletsvg-2{fill:#ed8385;stroke-width:14px;}.cls-StokedPigletsvg-3,.cls-StokedPigletsvg-4,.cls-StokedPigletsvg-5,.cls-StokedPigletsvg-6{fill:none;stroke-linecap:round;}.cls-StokedPigletsvg-4{stroke:#fff;}.cls-StokedPigletsvg-4,.cls-StokedPigletsvg-5,.cls-StokedPigletsvg-6,.cls-StokedPigletsvg-7{stroke-miterlimit:10;}.cls-StokedPigletsvg-6{stroke:#1a1a1a;}.cls-StokedPigletsvg-7,.cls-StokedPigletsvg-9{fill:#ff9cd2;}.cls-StokedPigletsvg-8{fill:#1a1a1a;}</style></defs><title>Asset 3</title><g id="Layer_2" data-name="Layer 2"><g id="svg42"><g id="Layer_2-2" data-name="Layer 2"><g id="Layer_4" data-name="Layer 4"><path id="path8" class="cls-StokedPigletsvg-1" d="M248.43,450c-78.4-.33-109,2.26-163.36-43.48C10.76,344,12.83,269,13.34,256.53c1.19-29.32,10.64-62.8,28-94.79h0c-10.09-7.43-20.57-18.08-26.57-33C10.28,117.6,10,108.2,10,87.41c0-18.54.32-41.85,1.28-69a7,7,0,0,1,7.29-6.7,6.86,6.86,0,0,1,1.35.19A187,187,0,0,1,76.27,36.51c26.24,17.07,33.64,25.26,42.55,38,36.58-25.4,75.08-34.64,129.61-34.64s93,9.24,129.61,34.64c8.9-12.78,16.31-21,42.54-38A187.31,187.31,0,0,1,485.26,10c1.21,30.77,1.56,57,1.59,77.41,0,20.79-.28,30.19-4.77,41.35-6,14.9-16.48,25.55-26.56,33h0c17.36,32,26.81,65.47,28,94.79.5,12.42,2.57,87.48-71.74,150C357.44,452.29,326.82,449.7,248.43,450Z"/><path id="path10" class="cls-StokedPigletsvg-2" d="M454.12,164.74s-13.59-21.61-19.86-40.2C424.87,96.73,425.32,71,455.21,49.2c-2,5.49-12.52,11.94-13.09,22.42-.92,16.92,14.13,19.66,13.56,35.62s-6.91,18.9-7.29,36.56C448.2,152.8,454.12,164.74,454.12,164.74Z"/><path id="path12" class="cls-StokedPigletsvg-2" d="M42.73,164.74s13.59-21.61,19.87-40.2C72,96.73,71.54,71,41.65,49.2c2,5.49,12.51,11.94,13.09,22.42.91,16.75-14.13,19.65-13.56,35.62s6.91,18.9,7.28,36.56C48.65,152.8,42.73,164.74,42.73,164.74Z"/><line id="line14" class="cls-StokedPigletsvg-3" x1="378.04" y1="74.55" x2="399.44" y2="92.39"/><line id="line16" class="cls-StokedPigletsvg-3" x1="118.94" y1="74.55" x2="97.55" y2="92.39"/><path id="path18" class="cls-StokedPigletsvg-4" d="M87.23,163.83c-2.42,4.17-5,8.35-7.31,12.93"/><path id="path20" class="cls-StokedPigletsvg-4" d="M205.37,76.23c-36.89,9.54-70.5,26.81-95.22,55"/><line id="line22" class="cls-StokedPigletsvg-5" x1="76.74" y1="283.59" x2="106.76" y2="283.59"/><line id="line24" class="cls-StokedPigletsvg-5" x1="391.23" y1="283.59" x2="421.24" y2="283.59"/><path id="path26" class="cls-StokedPigletsvg-6" d="M355.8,221.38a21.92,21.92,0,0,1,43.83,0"/><path id="path28" class="cls-StokedPigletsvg-6" d="M97.23,221.38a21.91,21.91,0,0,1,43.82,0"/><path id="path30" class="cls-StokedPigletsvg-7" d="M248.43,265.5c-58.44,0-105.81-4-105.81,31.08S190,370.11,248.43,370.11s105.8-38.45,105.8-73.53S306.86,265.5,248.43,265.5Z"/><rect id="rect32" class="cls-StokedPigletsvg-8" x="283.29" y="289.09" width="13.63" height="45.28" rx="6.65"/><rect id="rect34" class="cls-StokedPigletsvg-8" x="199.94" y="289.1" width="13.63" height="45.28" rx="6.65"/><path id="path36" class="cls-StokedPigletsvg-9" d="M309.21,384.35l76.47-41.49a6.71,6.71,0,0,1,9.1,2.68,6.86,6.86,0,0,1,.66,1.75c4.78,21.65-4.15,44.2-22.29,55.79-20.33,13-48,9.51-65.57-8.16a6.7,6.7,0,0,1,.13-9.47A6.44,6.44,0,0,1,309.21,384.35Z"/><path id="path38" class="cls-StokedPigletsvg-8" d="M341.54,402.46a32.34,32.34,0,0,1,52.13-25.59,54.16,54.16,0,0,0,1.77-29.58,6.71,6.71,0,0,0-8-5.09,6.86,6.86,0,0,0-1.75.66l-76.47,41.49a6.7,6.7,0,0,0-2.73,9.07,7.06,7.06,0,0,0,1.1,1.5,54.22,54.22,0,0,0,35.05,15.87A32.12,32.12,0,0,1,341.54,402.46Z"/></g></g></g></g></svg>