<?xml version="1.0" standalone="no"?>
<!DOCTYPE svg PUBLIC "-//W3C//DTD SVG 20010904//EN"
 "http://www.w3.org/TR/2001/REC-SVG-20010904/DTD/svg10.dtd">
<svg version="1.0" xmlns="http://www.w3.org/2000/svg"
 width="498.000000pt" height="498.000000pt" viewBox="0 0 498.000000 498.000000"
 preserveAspectRatio="xMidYMid meet">

<g transform="translate(0.000000,498.000000) scale(0.100000,-0.100000)"
fill="#000000" stroke="none">
<path d="M1727 4003 l-155 -168 -216 -94 c-119 -52 -216 -97 -216 -100 0 -3
-11 -89 -25 -191 -22 -154 -31 -196 -58 -253 -17 -37 -36 -65 -42 -63 -192 89
-331 119 -570 120 -99 1 -201 -3 -227 -7 -47 -8 -48 -9 -48 -45 0 -35 6 -42
140 -151 77 -63 140 -118 140 -122 0 -4 -63 -58 -139 -121 -77 -62 -140 -115
-140 -118 -1 -3 60 -47 134 -99 74 -51 132 -97 129 -102 -2 -4 -59 -47 -124
-95 -66 -47 -122 -89 -124 -93 -2 -3 56 -53 130 -111 73 -58 132 -108 131
-112 -1 -3 -64 -61 -139 -128 -76 -67 -138 -126 -138 -130 0 -27 298 -23 470
6 178 30 336 86 436 154 25 16 47 30 50 30 11 0 381 -507 387 -530 6 -21 42
-42 224 -130 l218 -105 130 -120 c71 -66 158 -147 193 -179 l64 -60 209 37
209 37 283 -37 284 -37 35 40 c20 21 89 99 154 172 l119 133 215 117 215 117
7 115 c12 184 25 291 36 302 6 6 36 1 90 -16 113 -36 232 -56 374 -64 148 -8
298 -5 298 8 0 5 -65 66 -145 136 -140 123 -145 129 -126 144 130 99 250 196
251 202 0 3 -48 41 -107 84 -60 43 -118 85 -131 95 -22 17 -22 17 112 111 74
51 135 96 136 99 0 5 -225 202 -268 235 -11 8 17 35 132 130 140 114 146 121
146 156 0 36 -1 37 -47 45 -27 4 -127 8 -223 7 -190 -1 -313 -20 -449 -69 -82
-30 -81 -30 -81 -7 0 12 -59 49 -201 127 l-200 110 -209 188 c-115 103 -214
187 -220 187 -10 0 -96 71 -443 368 -16 14 -39 12 -235 -21 -119 -21 -230 -37
-247 -37 -16 0 -113 16 -215 35 -102 19 -192 35 -202 35 -9 0 -86 -75 -171
-167z m893 -363 l195 -26 110 18 c60 9 149 23 197 31 l87 14 193 -173 c189
-170 197 -176 376 -275 101 -56 185 -106 188 -113 2 -6 18 -114 35 -240 l31
-229 79 -158 79 -159 -104 -228 -105 -229 -10 -152 c-6 -84 -11 -160 -11 -170
0 -12 -59 -49 -198 -124 l-198 -107 -141 -158 -140 -158 -259 34 -259 34 -180
-31 c-99 -17 -188 -31 -197 -31 -9 0 -95 73 -190 162 l-173 162 -202 98 c-174
84 -203 101 -204 120 0 13 -8 97 -17 188 l-17 165 -113 213 c-61 118 -112 219
-112 224 0 6 44 99 97 207 l98 196 5 219 5 219 202 79 201 79 188 168 c188
168 189 168 229 163 22 -3 128 -17 235 -32z m-2025 -500 c327 -37 544 -177
622 -401 13 -39 23 -74 21 -79 -2 -5 -41 7 -87 26 -98 39 -121 42 -146 14 -26
-29 -13 -66 35 -90 91 -46 73 -88 -69 -159 -54 -28 -101 -57 -104 -66 -10 -23
13 -65 39 -71 17 -4 67 17 178 75 85 45 157 81 162 81 18 0 -7 -118 -40 -187
-95 -198 -341 -328 -685 -361 l-83 -8 43 40 c25 23 66 60 92 84 36 33 46 47
38 56 -6 7 -65 55 -131 107 l-119 93 126 93 c70 51 131 97 136 102 5 5 -43 45
-110 92 -65 45 -128 90 -140 100 -22 16 -21 17 117 130 77 62 140 116 139 119
0 3 -58 52 -130 110 -71 57 -129 106 -129 107 0 7 142 2 225 -7z m4075 7 c0
-1 -58 -50 -129 -107 -72 -58 -129 -108 -128 -111 1 -4 62 -58 135 -120 72
-62 132 -115 132 -118 0 -3 -61 -48 -135 -99 -74 -52 -135 -97 -135 -102 0 -5
58 -51 129 -102 72 -51 130 -95 130 -98 1 -3 -57 -50 -129 -105 -71 -55 -129
-102 -129 -105 -1 -3 41 -41 91 -85 66 -57 87 -81 75 -83 -44 -9 -393 61 -415
82 -4 5 138 309 152 326 35 41 26 79 -22 99 -22 9 -39 33 -72 100 -41 85 -42
89 -26 112 9 13 16 30 16 38 0 23 -31 51 -55 51 -21 0 -23 8 -40 138 -26 203
-31 182 50 213 82 33 181 56 285 68 73 8 220 14 220 8z"/>
<path d="M2261 3368 c-141 -36 -284 -116 -399 -222 -70 -65 -84 -96 -57 -126
26 -29 61 -25 92 11 42 47 161 133 233 170 36 18 108 46 160 63 88 29 95 33
98 59 7 59 -27 71 -127 45z"/>
<path d="M1920 2598 c0 -7 14 -145 32 -306 l31 -293 101 3 101 3 21 150 c19
143 21 148 29 100 4 -27 15 -95 24 -150 l17 -100 100 -3 100 -3 33 283 c18
156 35 293 38 306 5 21 3 22 -75 22 l-80 0 -6 -43 c-4 -24 -13 -108 -20 -186
-13 -138 -26 -195 -26 -115 0 21 -5 108 -12 192 l-12 152 -82 0 c-97 0 -86 22
-110 -212 -10 -92 -19 -166 -20 -165 -1 1 -7 72 -13 157 -7 85 -14 170 -17
188 l-5 32 -74 0 c-53 0 -75 -4 -75 -12z"/>
<path d="M2572 2308 l3 -303 138 -3 137 -3 0 66 0 65 -55 0 -55 0 0 65 0 65
50 0 50 0 0 55 0 55 -50 0 -50 0 0 60 0 60 50 0 50 0 0 60 0 60 -135 0 -135 0
2 -302z"/>
<path d="M2860 2550 l0 -60 50 0 50 0 0 -245 0 -245 80 0 80 0 0 245 0 245 45
0 45 0 0 60 0 60 -175 0 -175 0 0 -60z"/>
<path d="M3240 2305 l0 -305 80 0 80 0 0 125 0 125 25 0 25 0 0 -125 0 -125
80 0 80 0 0 305 0 305 -80 0 -80 0 0 -110 c0 -103 -1 -110 -20 -110 -19 0 -20
7 -20 110 l0 110 -85 0 -85 0 0 -305z"/>
</g>
</svg>
